<svg width="2491" height="2429" viewBox="0 0 2491 2429" fill="none" xmlns="http://www.w3.org/2000/svg">
<path d="M1245.17 0C557.568 0 0 557.471 0 1245.17C0 1795.32 356.777 2262.06 851.523 2426.71C913.75 2438.23 936.602 2399.7 936.602 2366.81C936.602 2337.12 935.439 2239.02 934.912 2134.98C588.496 2210.3 515.4 1988.07 515.4 1988.07C458.76 1844.14 377.148 1805.88 377.148 1805.88C264.18 1728.59 385.664 1730.18 385.664 1730.18C510.703 1738.96 576.543 1858.5 576.543 1858.5C687.598 2048.86 867.832 1993.82 938.887 1962.01C950.059 1881.52 982.334 1826.6 1017.94 1795.51C741.377 1764.01 450.635 1657.25 450.635 1180.14C450.635 1044.2 499.277 933.115 578.936 845.918C566.006 814.551 523.389 687.91 590.996 516.397C590.996 516.397 695.557 482.93 933.506 644.033C1032.82 616.436 1139.35 602.607 1245.17 602.139C1350.99 602.607 1457.59 616.436 1557.1 644.033C1794.77 482.93 1899.18 516.397 1899.18 516.397C1966.95 687.91 1924.32 814.551 1911.39 845.918C1991.22 933.115 2039.53 1044.19 2039.53 1180.14C2039.53 1658.38 1748.24 1763.69 1470.98 1794.51C1515.63 1833.15 1555.43 1908.94 1555.43 2025.1C1555.43 2191.7 1553.98 2325.79 1553.98 2366.81C1553.98 2399.94 1576.4 2438.77 1639.52 2426.54C2133.99 2261.71 2490.32 1795.14 2490.32 1245.17C2490.32 557.471 1932.83 0 1245.17 0Z" fill="white"/>
<path d="M466.357 1773.77C463.623 1779.95 453.876 1781.81 445.019 1777.57C435.986 1773.51 430.908 1765.07 433.837 1758.86C436.523 1752.49 446.269 1750.71 455.283 1754.99C464.335 1759.04 469.492 1767.56 466.357 1773.77ZM527.607 1828.42C521.669 1833.93 510.058 1831.37 502.177 1822.67C494.033 1813.98 492.509 1802.38 498.535 1796.79C504.658 1791.29 515.918 1793.86 524.082 1802.55C532.226 1811.33 533.808 1822.86 527.597 1828.43M569.628 1898.34C561.992 1903.64 549.511 1898.67 541.806 1887.6C534.179 1876.53 534.179 1863.25 541.972 1857.93C549.707 1852.61 561.992 1857.39 569.804 1868.38C577.421 1879.64 577.421 1892.92 569.619 1898.35M640.683 1979.33C633.857 1986.85 619.326 1984.83 608.681 1974.56C597.802 1964.52 594.765 1950.27 601.611 1942.74C608.515 1935.21 623.134 1937.32 633.857 1947.51C644.667 1957.53 647.959 1971.88 640.683 1979.33ZM732.519 2006.67C729.521 2016.42 715.517 2020.85 701.416 2016.71C687.333 2012.44 678.115 2001.02 680.957 1991.16C683.886 1981.35 697.949 1976.73 712.158 1981.16C726.22 1985.41 735.449 1996.75 732.519 2006.67ZM837.05 2018.26C837.402 2028.54 825.439 2037.05 810.634 2037.24C795.742 2037.56 783.701 2029.25 783.544 2019.15C783.544 2008.78 795.234 2000.34 810.117 2000.1C824.921 1999.8 837.05 2008.06 837.05 2018.26ZM939.726 2014.33C941.503 2024.35 931.21 2034.64 916.513 2037.37C902.06 2040.01 888.681 2033.83 886.835 2023.9C885.039 2013.62 895.527 2003.34 909.951 2000.67C924.677 1998.12 937.851 2004.14 939.726 2014.33Z" fill="white"/>
</svg>
