<svg width="48" height="45" viewBox="0 0 48 45" fill="none" xmlns="http://www.w3.org/2000/svg">
<path d="M0 44.8V0H22.08C27.0721 0 31.4666 0.917399 35.264 2.752C39.0613 4.544 42.0266 7.104 44.16 10.432C46.2933 13.76 47.3601 17.728 47.3601 22.336C47.3601 26.9867 46.2933 30.9974 44.16 34.368C42.0266 37.696 39.0613 40.2774 35.264 42.112C31.4666 43.904 27.0721 44.8 22.08 44.8H0ZM15.1039 33.024H21.44C23.5734 33.024 25.4294 32.6187 27.0081 31.808C28.6294 30.9974 29.888 29.8027 30.784 28.224C31.6801 26.6027 32.1281 24.64 32.1281 22.336C32.1281 20.0747 31.6801 18.1547 30.784 16.576C29.888 14.9974 28.6294 13.8027 27.0081 12.992C25.4294 12.1814 23.5734 11.776 21.44 11.776H15.1039V33.024Z" fill="white"/>
<path d="M5.53955 0V45" stroke="#0B0949"/>
<path d="M3.53955 0V45" stroke="#0B0949"/>
<path d="M1.53955 0V45" stroke="#0B0949"/>
</svg>
