<svg width="265" height="63" viewBox="0 0 265 63" fill="none" xmlns="http://www.w3.org/2000/svg">
<rect x="3.82764" y="4.12231" width="101.878" height="8.53889" rx="0.294444" fill="#F50119"/>
<path d="M2.7825 44.5388V16.7138H15.9398C19.0138 16.7138 21.7168 17.2836 24.0488 18.4231C26.3808 19.5626 28.196 21.1658 29.4945 23.2328C30.8195 25.2998 31.482 27.7643 31.482 30.6263C31.482 33.4618 30.8195 35.9263 29.4945 38.0198C28.196 40.0868 26.3808 41.6901 24.0488 42.8296C21.7168 43.9691 19.0138 44.5388 15.9398 44.5388H2.7825ZM10.653 38.2583H15.6218C17.2118 38.2583 18.5898 37.9668 19.7558 37.3838C20.9483 36.7743 21.8758 35.8998 22.5383 34.7603C23.2008 33.5943 23.532 32.2163 23.532 30.6263C23.532 29.0098 23.2008 27.6318 22.5383 26.4923C21.8758 25.3528 20.9483 24.4916 19.7558 23.9086C18.5898 23.2991 17.2118 22.9943 15.6218 22.9943H10.653V38.2583ZM48.4223 44.5388V40.5241L47.9056 39.5303V32.1368C47.9056 30.9443 47.5346 30.0301 46.7926 29.3941C46.0771 28.7316 44.9243 28.4003 43.3343 28.4003C42.3008 28.4003 41.2541 28.5726 40.1941 28.9171C39.1341 29.2351 38.2331 29.6856 37.4911 30.2686L34.9471 25.1408C36.1661 24.3458 37.6236 23.7363 39.3196 23.3123C41.0421 22.8618 42.7513 22.6366 44.4473 22.6366C47.9453 22.6366 50.6483 23.4448 52.5563 25.0613C54.4908 26.6513 55.4581 29.1556 55.4581 32.5741V44.5388H48.4223ZM42.0623 44.8966C40.3398 44.8966 38.8823 44.6051 37.6898 44.0221C36.4973 43.4391 35.5831 42.6441 34.9471 41.6371C34.3376 40.6301 34.0328 39.5038 34.0328 38.2583C34.0328 36.9333 34.3641 35.7938 35.0266 34.8398C35.7156 33.8593 36.7623 33.1173 38.1668 32.6138C39.5713 32.0838 41.3866 31.8188 43.6126 31.8188H48.7006V35.7541H44.6461C43.4271 35.7541 42.5658 35.9528 42.0623 36.3503C41.5853 36.7478 41.3468 37.2778 41.3468 37.9403C41.3468 38.6028 41.5986 39.1328 42.1021 39.5303C42.6056 39.9278 43.2946 40.1266 44.1691 40.1266C44.9906 40.1266 45.7326 39.9278 46.3951 39.5303C47.0841 39.1063 47.5876 38.4703 47.9056 37.6223L48.9391 40.4048C48.5416 41.8888 47.7598 43.0151 46.5938 43.7836C45.4543 44.5256 43.9438 44.8966 42.0623 44.8966ZM69.8448 44.8966C67.0888 44.8966 64.9423 44.2208 63.4053 42.8693C61.8683 41.4913 61.0998 39.4243 61.0998 36.6683V18.1846H68.6523V36.5888C68.6523 37.3573 68.8643 37.9668 69.2883 38.4173C69.7123 38.8413 70.2555 39.0533 70.918 39.0533C71.819 39.0533 72.5875 38.8281 73.2235 38.3776L75.0918 43.6643C74.4558 44.0883 73.674 44.3931 72.7465 44.5786C71.819 44.7906 70.8518 44.8966 69.8448 44.8966ZM57.9595 29.4338V23.7893H73.5813V29.4338H57.9595ZM91.1613 44.5388V40.5241L90.6446 39.5303V32.1368C90.6446 30.9443 90.2736 30.0301 89.5316 29.3941C88.8161 28.7316 87.6633 28.4003 86.0733 28.4003C85.0398 28.4003 83.9931 28.5726 82.9331 28.9171C81.8731 29.2351 80.9721 29.6856 80.2301 30.2686L77.6861 25.1408C78.9051 24.3458 80.3626 23.7363 82.0586 23.3123C83.7811 22.8618 85.4903 22.6366 87.1863 22.6366C90.6843 22.6366 93.3873 23.4448 95.2953 25.0613C97.2298 26.6513 98.1971 29.1556 98.1971 32.5741V44.5388H91.1613ZM84.8013 44.8966C83.0788 44.8966 81.6213 44.6051 80.4288 44.0221C79.2363 43.4391 78.3221 42.6441 77.6861 41.6371C77.0766 40.6301 76.7718 39.5038 76.7718 38.2583C76.7718 36.9333 77.1031 35.7938 77.7656 34.8398C78.4546 33.8593 79.5013 33.1173 80.9058 32.6138C82.3103 32.0838 84.1256 31.8188 86.3516 31.8188H91.4396V35.7541H87.3851C86.1661 35.7541 85.3048 35.9528 84.8013 36.3503C84.3243 36.7478 84.0858 37.2778 84.0858 37.9403C84.0858 38.6028 84.3376 39.1328 84.8411 39.5303C85.3446 39.9278 86.0336 40.1266 86.9081 40.1266C87.7296 40.1266 88.4716 39.9278 89.1341 39.5303C89.8231 39.1063 90.3266 38.4703 90.6446 37.6223L91.6781 40.4048C91.2806 41.8888 90.4988 43.0151 89.3328 43.7836C88.1933 44.5256 86.6828 44.8966 84.8013 44.8966ZM114.247 44.8966C111.862 44.8966 109.729 44.4196 107.847 43.4656C105.992 42.5116 104.535 41.1998 103.475 39.5303C102.415 37.8343 101.885 35.8998 101.885 33.7268C101.885 31.5538 102.415 29.6326 103.475 27.9631C104.535 26.2936 105.992 24.9951 107.847 24.0676C109.729 23.1136 111.862 22.6366 114.247 22.6366C116.685 22.6366 118.792 23.1533 120.567 24.1868C122.343 25.2203 123.601 26.6778 124.343 28.5593L118.5 31.5406C117.997 30.5336 117.374 29.8048 116.632 29.3543C115.89 28.8773 115.082 28.6388 114.207 28.6388C113.333 28.6388 112.538 28.8376 111.822 29.2351C111.107 29.6326 110.537 30.2156 110.113 30.9841C109.715 31.7261 109.517 32.6403 109.517 33.7268C109.517 34.8398 109.715 35.7806 110.113 36.5491C110.537 37.3176 111.107 37.9006 111.822 38.2981C112.538 38.6956 113.333 38.8943 114.207 38.8943C115.082 38.8943 115.89 38.6691 116.632 38.2186C117.374 37.7416 117.997 36.9996 118.5 35.9926L124.343 38.9738C123.601 40.8553 122.343 42.3128 120.567 43.3463C118.792 44.3798 116.685 44.8966 114.247 44.8966ZM141.141 22.6366C142.811 22.6366 144.321 22.9811 145.673 23.6701C147.024 24.3326 148.084 25.3661 148.853 26.7706C149.648 28.1751 150.045 29.9903 150.045 32.2163V44.5388H142.493V33.4486C142.493 31.9116 142.175 30.7986 141.539 30.1096C140.929 29.3941 140.068 29.0363 138.955 29.0363C138.16 29.0363 137.431 29.2218 136.769 29.5928C136.106 29.9373 135.589 30.4806 135.218 31.2226C134.847 31.9646 134.662 32.9318 134.662 34.1243V44.5388H127.109V15.0443H134.662V29.1158L132.913 27.3271C133.734 25.7636 134.861 24.5976 136.292 23.8291C137.723 23.0341 139.339 22.6366 141.141 22.6366ZM166.348 44.8966C163.804 44.8966 161.578 44.4196 159.67 43.4656C157.788 42.4851 156.317 41.1601 155.257 39.4906C154.224 37.7946 153.707 35.8733 153.707 33.7268C153.707 31.5803 154.211 29.6723 155.218 28.0028C156.251 26.3068 157.669 24.9951 159.471 24.0676C161.273 23.1136 163.3 22.6366 165.553 22.6366C167.673 22.6366 169.607 23.0738 171.356 23.9483C173.105 24.7963 174.496 26.0551 175.53 27.7246C176.563 29.3941 177.08 31.4213 177.08 33.8063C177.08 34.0713 177.067 34.3761 177.04 34.7206C177.014 35.0651 176.987 35.3831 176.961 35.6746H159.908V31.6996H172.946L170.084 32.8126C170.111 31.8321 169.925 30.9841 169.528 30.2686C169.157 29.5531 168.627 28.9966 167.938 28.5991C167.275 28.2016 166.493 28.0028 165.592 28.0028C164.691 28.0028 163.896 28.2016 163.207 28.5991C162.545 28.9966 162.028 29.5663 161.657 30.3083C161.286 31.0238 161.101 31.8718 161.101 32.8523V34.0051C161.101 35.0651 161.313 35.9793 161.737 36.7478C162.187 37.5163 162.823 38.1126 163.645 38.5366C164.466 38.9341 165.447 39.1328 166.586 39.1328C167.646 39.1328 168.547 38.9871 169.289 38.6956C170.058 38.3776 170.813 37.9006 171.555 37.2646L175.53 41.3986C174.496 42.5381 173.224 43.4126 171.714 44.0221C170.203 44.6051 168.415 44.8966 166.348 44.8966ZM191.573 44.8966C189.188 44.8966 187.055 44.4196 185.173 43.4656C183.318 42.5116 181.861 41.1998 180.801 39.5303C179.741 37.8343 179.211 35.8998 179.211 33.7268C179.211 31.5538 179.741 29.6326 180.801 27.9631C181.861 26.2936 183.318 24.9951 185.173 24.0676C187.055 23.1136 189.188 22.6366 191.573 22.6366C194.011 22.6366 196.118 23.1533 197.893 24.1868C199.669 25.2203 200.927 26.6778 201.669 28.5593L195.826 31.5406C195.323 30.5336 194.7 29.8048 193.958 29.3543C193.216 28.8773 192.408 28.6388 191.533 28.6388C190.659 28.6388 189.864 28.8376 189.148 29.2351C188.433 29.6326 187.863 30.2156 187.439 30.9841C187.041 31.7261 186.843 32.6403 186.843 33.7268C186.843 34.8398 187.041 35.7806 187.439 36.5491C187.863 37.3176 188.433 37.9006 189.148 38.2981C189.864 38.6956 190.659 38.8943 191.533 38.8943C192.408 38.8943 193.216 38.6691 193.958 38.2186C194.7 37.7416 195.323 36.9996 195.826 35.9926L201.669 38.9738C200.927 40.8553 199.669 42.3128 197.893 43.3463C196.118 44.3798 194.011 44.8966 191.573 44.8966ZM210.716 40.5638L210.915 31.5406L219.699 22.9943H228.643L218.904 33.0511L215.049 36.1516L210.716 40.5638ZM204.435 44.5388V15.0443H211.988V44.5388H204.435ZM220.256 44.5388L213.657 36.2708L218.348 30.4673L229.398 44.5388H220.256ZM238.779 44.8966C236.951 44.8966 235.162 44.6846 233.413 44.2606C231.69 43.8366 230.299 43.3066 229.239 42.6706L231.505 37.5031C232.512 38.1126 233.691 38.6028 235.043 38.9738C236.394 39.3183 237.719 39.4906 239.018 39.4906C240.29 39.4906 241.164 39.3581 241.641 39.0931C242.145 38.8281 242.396 38.4703 242.396 38.0198C242.396 37.5958 242.158 37.2911 241.681 37.1056C241.23 36.8936 240.621 36.7346 239.852 36.6286C239.11 36.5226 238.289 36.4033 237.388 36.2708C236.487 36.1383 235.573 35.9661 234.645 35.7541C233.744 35.5156 232.909 35.1711 232.141 34.7206C231.399 34.2436 230.803 33.6076 230.352 32.8126C229.902 32.0176 229.676 31.0106 229.676 29.7916C229.676 28.4136 230.074 27.1946 230.869 26.1346C231.69 25.0481 232.883 24.2001 234.446 23.5906C236.01 22.9546 237.918 22.6366 240.17 22.6366C241.681 22.6366 243.205 22.7956 244.742 23.1136C246.305 23.4051 247.617 23.8556 248.677 24.4651L246.411 29.5928C245.351 28.9833 244.291 28.5726 243.231 28.3606C242.171 28.1221 241.164 28.0028 240.21 28.0028C238.938 28.0028 238.037 28.1486 237.507 28.4401C237.004 28.7316 236.752 29.0893 236.752 29.5133C236.752 29.9373 236.977 30.2686 237.428 30.5071C237.878 30.7191 238.474 30.8913 239.216 31.0238C239.985 31.1298 240.82 31.2491 241.721 31.3816C242.622 31.4876 243.523 31.6598 244.424 31.8983C245.351 32.1368 246.186 32.4946 246.928 32.9716C247.696 33.4221 248.306 34.0448 248.756 34.8398C249.207 35.6083 249.432 36.6021 249.432 37.8211C249.432 39.1461 249.021 40.3386 248.2 41.3986C247.405 42.4586 246.212 43.3066 244.622 43.9426C243.059 44.5786 241.111 44.8966 238.779 44.8966Z" fill="#0B0949"/>
<line x1="4.12208" y1="16.7834" x2="4.12208" y2="44.4612" stroke="white" stroke-width="0.588889"/>
<line x1="5.88868" y1="16.7834" x2="5.88868" y2="44.4612" stroke="white" stroke-width="0.588889"/>
<line x1="7.65577" y1="16.7834" x2="7.65577" y2="44.4612" stroke="white" stroke-width="0.588889"/>
</svg>
