<svg width="409" height="73" viewBox="0 0 409 73" fill="none" xmlns="http://www.w3.org/2000/svg">
<path d="M1.96045 72V27.2H24.0404C29.0325 27.2 33.4271 28.1174 37.2245 29.952C41.0218 31.744 43.9871 34.304 46.1205 37.632C48.2538 40.96 49.3205 44.928 49.3205 49.536C49.3205 54.1867 48.2538 58.1974 46.1205 61.568C43.9871 64.896 41.0218 67.4774 37.2245 69.312C33.4271 71.104 29.0325 72 24.0404 72H1.96045ZM17.0644 60.224H23.4004C25.5338 60.224 27.3898 59.8187 28.9685 59.008C30.5898 58.1974 31.8485 57.0027 32.7445 55.424C33.6405 53.8027 34.0885 51.84 34.0885 49.536C34.0885 47.2747 33.6405 45.3547 32.7445 43.776C31.8485 42.1974 30.5898 41.0027 28.9685 40.192C27.3898 39.3814 25.5338 38.976 23.4004 38.976H17.0644V60.224Z" fill="white"/>
<path d="M75.5714 72V65.792L74.5474 64.128V52.352C74.5474 50.6454 74.0141 49.344 72.9474 48.448C71.9234 47.552 70.2381 47.104 67.8914 47.104C66.3128 47.104 64.7128 47.36 63.0914 47.872C61.4701 48.3414 60.0834 49.0027 58.9314 49.856L54.3234 40.32C56.3714 39.04 58.8248 38.0587 61.6834 37.376C64.5421 36.6934 67.3368 36.352 70.0675 36.352C76.0835 36.352 80.7341 37.696 84.0194 40.384C87.3474 43.072 89.0115 47.3387 89.0115 53.184V72H75.5714ZM65.6515 72.64C62.7928 72.64 60.4034 72.1494 58.4834 71.168C56.5634 70.1867 55.1128 68.8854 54.1315 67.264C53.1501 65.6 52.6595 63.7654 52.6595 61.76C52.6595 59.4987 53.2354 57.5787 54.3874 56C55.5394 54.4214 57.2888 53.2267 59.6354 52.416C62.0248 51.6054 65.0328 51.2 68.6594 51.2H75.9555V58.176H70.9634C69.4274 58.176 68.2968 58.432 67.5714 58.944C66.8888 59.4134 66.5474 60.1387 66.5474 61.12C66.5474 61.9307 66.8461 62.6134 67.4435 63.168C68.0835 63.68 68.9368 63.936 70.0034 63.936C70.9848 63.936 71.8808 63.68 72.6915 63.168C73.5448 62.6134 74.1634 61.76 74.5474 60.608L76.4035 64.896C75.8488 67.4987 74.6755 69.44 72.8835 70.72C71.0915 72 68.6808 72.64 65.6515 72.64Z" fill="white"/>
<path d="M112.158 72.64C107.337 72.64 103.582 71.488 100.894 69.184C98.2064 66.8374 96.8624 63.2534 96.8624 58.432V29.12H111.326V58.304C111.326 59.3707 111.604 60.2027 112.158 60.8C112.756 61.3974 113.481 61.696 114.334 61.696C115.572 61.696 116.66 61.376 117.598 60.736L121.054 70.784C119.945 71.424 118.601 71.8934 117.022 72.192C115.486 72.4907 113.865 72.64 112.158 72.64ZM92.0624 49.472V38.912H118.494V49.472H92.0624Z" fill="white"/>
<path d="M145.884 72V65.792L144.86 64.128V52.352C144.86 50.6454 144.327 49.344 143.26 48.448C142.236 47.552 140.551 47.104 138.204 47.104C136.625 47.104 135.025 47.36 133.404 47.872C131.783 48.3414 130.396 49.0027 129.244 49.856L124.636 40.32C126.684 39.04 129.137 38.0587 131.996 37.376C134.855 36.6934 137.649 36.352 140.38 36.352C146.396 36.352 151.047 37.696 154.332 40.384C157.66 43.072 159.324 47.3387 159.324 53.184V72H145.884ZM135.964 72.64C133.105 72.64 130.716 72.1494 128.796 71.168C126.876 70.1867 125.425 68.8854 124.444 67.264C123.463 65.6 122.972 63.7654 122.972 61.76C122.972 59.4987 123.548 57.5787 124.7 56C125.852 54.4214 127.601 53.2267 129.948 52.416C132.337 51.6054 135.345 51.2 138.972 51.2H146.268V58.176H141.276C139.74 58.176 138.609 58.432 137.884 58.944C137.201 59.4134 136.86 60.1387 136.86 61.12C136.86 61.9307 137.159 62.6134 137.756 63.168C138.396 63.68 139.249 63.936 140.316 63.936C141.297 63.936 142.193 63.68 143.004 63.168C143.857 62.6134 144.476 61.76 144.86 60.608L146.716 64.896C146.161 67.4987 144.988 69.44 143.196 70.72C141.404 72 138.993 72.64 135.964 72.64Z" fill="white"/>
<path d="M185.016 72.64C181.005 72.64 177.443 71.872 174.328 70.336C171.213 68.8 168.76 66.6667 166.968 63.936C165.219 61.1627 164.344 58.0054 164.344 54.464C164.344 50.9227 165.219 47.7867 166.968 45.056C168.76 42.3254 171.213 40.192 174.328 38.656C177.443 37.12 181.005 36.352 185.016 36.352C189.283 36.352 192.931 37.2694 195.96 39.104C198.989 40.9387 201.08 43.4774 202.232 46.72L191.032 52.224C190.307 50.6027 189.411 49.4294 188.344 48.704C187.32 47.9787 186.189 47.616 184.952 47.616C183.885 47.616 182.883 47.872 181.944 48.384C181.048 48.896 180.323 49.664 179.768 50.688C179.256 51.6694 179 52.928 179 54.464C179 56 179.256 57.28 179.768 58.304C180.323 59.328 181.048 60.096 181.944 60.608C182.883 61.12 183.885 61.376 184.952 61.376C186.189 61.376 187.32 61.0134 188.344 60.288C189.411 59.5627 190.307 58.3894 191.032 56.768L202.232 62.272C201.08 65.5147 198.989 68.0534 195.96 69.888C192.931 71.7227 189.283 72.64 185.016 72.64Z" fill="white"/>
<path d="M229.895 36.352C232.583 36.352 235.015 36.9067 237.191 38.016C239.367 39.0827 241.074 40.768 242.311 43.072C243.591 45.376 244.231 48.3627 244.231 52.032V72H229.767V54.528C229.767 52.352 229.383 50.816 228.615 49.92C227.847 48.9814 226.802 48.512 225.479 48.512C224.498 48.512 223.58 48.7467 222.727 49.216C221.916 49.6427 221.255 50.368 220.743 51.392C220.274 52.416 220.039 53.8027 220.039 55.552V72H205.575V24.512H220.039V47.232L216.583 44.288C217.948 41.6427 219.783 39.6587 222.087 38.336C224.434 37.0134 227.036 36.352 229.895 36.352Z" fill="white"/>
<path d="M270.465 72.64C266.199 72.64 262.465 71.8507 259.265 70.272C256.108 68.6934 253.655 66.5387 251.905 63.808C250.156 61.0347 249.281 57.92 249.281 54.464C249.281 50.9227 250.135 47.7867 251.841 45.056C253.591 42.3254 255.959 40.192 258.945 38.656C261.975 37.12 265.367 36.352 269.121 36.352C272.577 36.352 275.756 37.0347 278.657 38.4C281.601 39.7654 283.948 41.792 285.697 44.48C287.489 47.168 288.385 50.496 288.385 54.464C288.385 54.976 288.364 55.552 288.321 56.192C288.279 56.7894 288.236 57.344 288.193 57.856H261.249V50.88H280.513L275.073 52.736C275.073 51.3707 274.817 50.2187 274.305 49.28C273.836 48.2987 273.175 47.552 272.321 47.04C271.468 46.4854 270.444 46.208 269.249 46.208C268.055 46.208 267.009 46.4854 266.113 47.04C265.26 47.552 264.599 48.2987 264.129 49.28C263.66 50.2187 263.425 51.3707 263.425 52.736V54.912C263.425 56.4054 263.724 57.6854 264.321 58.752C264.919 59.8187 265.772 60.6294 266.881 61.184C267.991 61.696 269.335 61.952 270.913 61.952C272.535 61.952 273.857 61.7387 274.881 61.312C275.948 60.8854 277.057 60.2454 278.209 59.392L285.761 67.008C284.055 68.8427 281.943 70.2507 279.425 71.232C276.951 72.1707 273.964 72.64 270.465 72.64Z" fill="white"/>
<path d="M311.766 72.64C307.755 72.64 304.193 71.872 301.078 70.336C297.963 68.8 295.51 66.6667 293.718 63.936C291.969 61.1627 291.094 58.0054 291.094 54.464C291.094 50.9227 291.969 47.7867 293.718 45.056C295.51 42.3254 297.963 40.192 301.078 38.656C304.193 37.12 307.755 36.352 311.766 36.352C316.033 36.352 319.681 37.2694 322.71 39.104C325.739 40.9387 327.83 43.4774 328.982 46.72L317.782 52.224C317.057 50.6027 316.161 49.4294 315.094 48.704C314.07 47.9787 312.939 47.616 311.702 47.616C310.635 47.616 309.633 47.872 308.694 48.384C307.798 48.896 307.073 49.664 306.518 50.688C306.006 51.6694 305.75 52.928 305.75 54.464C305.75 56 306.006 57.28 306.518 58.304C307.073 59.328 307.798 60.096 308.694 60.608C309.633 61.12 310.635 61.376 311.702 61.376C312.939 61.376 314.07 61.0134 315.094 60.288C316.161 59.5627 317.057 58.3894 317.782 56.768L328.982 62.272C327.83 65.5147 325.739 68.0534 322.71 69.888C319.681 71.7227 316.033 72.64 311.766 72.64Z" fill="white"/>
<path d="M344.421 66.24L344.741 49.216L356.837 36.992H373.925L357.925 53.76L350.693 59.584L344.421 66.24ZM332.325 72V24.512H346.789V72H332.325ZM357.605 72L348.005 59.84L356.901 48.896L375.077 72H357.605Z" fill="white"/>
<path d="M390.396 72.64C387.409 72.64 384.465 72.32 381.564 71.68C378.663 71.04 376.316 70.208 374.524 69.184L378.492 59.648C380.156 60.6294 382.076 61.3974 384.252 61.952C386.471 62.5067 388.625 62.784 390.716 62.784C392.465 62.784 393.639 62.6347 394.236 62.336C394.876 62.0374 395.196 61.632 395.196 61.12C395.196 60.608 394.833 60.2454 394.108 60.032C393.383 59.776 392.423 59.584 391.228 59.456C390.033 59.328 388.711 59.1787 387.26 59.008C385.852 58.7947 384.423 58.496 382.972 58.112C381.521 57.728 380.199 57.152 379.004 56.384C377.809 55.616 376.849 54.592 376.124 53.312C375.399 51.9894 375.036 50.3254 375.036 48.32C375.036 46.1014 375.697 44.096 377.02 42.304C378.385 40.512 380.391 39.0827 383.036 38.016C385.724 36.9067 389.031 36.352 392.956 36.352C395.516 36.352 398.076 36.5867 400.636 37.056C403.196 37.5254 405.393 38.2507 407.228 39.232L403.26 48.768C401.468 47.7867 399.697 47.1254 397.948 46.784C396.241 46.4 394.641 46.208 393.148 46.208C391.313 46.208 390.055 46.3787 389.372 46.72C388.732 47.0614 388.412 47.4454 388.412 47.872C388.412 48.384 388.775 48.768 389.5 49.024C390.225 49.28 391.185 49.472 392.38 49.6C393.575 49.728 394.876 49.8987 396.284 50.112C397.735 50.2827 399.164 50.5814 400.572 51.008C402.023 51.392 403.345 51.968 404.54 52.736C405.735 53.504 406.695 54.5494 407.42 55.872C408.145 57.152 408.508 58.7947 408.508 60.8C408.508 62.8907 407.847 64.8534 406.524 66.688C405.201 68.48 403.196 69.9307 400.508 71.04C397.82 72.1067 394.449 72.64 390.396 72.64Z" fill="white"/>
<rect x="0.5" y="0.5" width="164" height="21.5" fill="#F50119" stroke="#0B0949"/>
<line x1="7.5" y1="27" x2="7.5" y2="72" stroke="#0B0949"/>
<line x1="5.5" y1="27" x2="5.5" y2="72" stroke="#0B0949"/>
<line x1="3.5" y1="27" x2="3.5" y2="72" stroke="#0B0949"/>
</svg>
