<svg width="2448" height="2453" viewBox="0 0 2448 2453" fill="none" xmlns="http://www.w3.org/2000/svg">
<g clip-path="url(#clip0_549_6)">
<path fill-rule="evenodd" clip-rule="evenodd" d="M897.4 0C762.1 0.1 652.6 109.9 652.7 245.2C652.6 380.5 762.2 490.3 897.5 490.4H1142.3V245.3C1142.4 110 1032.8 0.2 897.4 0C897.5 0 897.5 0 897.4 0ZM897.4 654H244.8C109.5 654.1 -0.100215 763.9 -0.000214994 899.2C-0.200215 1034.5 109.4 1144.3 244.7 1144.5H897.4C1032.7 1144.4 1142.3 1034.6 1142.2 899.3C1142.3 763.9 1032.7 654.1 897.4 654Z" fill="white"/>
<path fill-rule="evenodd" clip-rule="evenodd" d="M2447.6 899.2C2447.7 763.9 2338.1 654.1 2202.8 654C2067.5 654.1 1957.9 763.9 1958 899.2V1144.5H2202.8C2338.1 1144.4 2447.7 1034.6 2447.6 899.2ZM1794.9 899.2V245.2C1795 110 1685.5 0.2 1550.2 0C1414.9 0.1 1305.3 109.9 1305.4 245.2V899.2C1305.2 1034.5 1414.8 1144.3 1550.1 1144.5C1685.4 1144.4 1795 1034.6 1794.9 899.2Z" fill="white"/>
<path fill-rule="evenodd" clip-rule="evenodd" d="M1550.1 2452.5C1685.4 2452.4 1795 2342.6 1794.9 2207.3C1795 2072 1685.4 1962.2 1550.1 1962.1H1305.3V2207.3C1305.2 2342.5 1414.8 2452.3 1550.1 2452.5ZM1550.1 1798.4H2202.8C2338.1 1798.3 2447.7 1688.5 2447.6 1553.2C2447.8 1417.9 2338.2 1308.1 2202.9 1307.9H1550.2C1414.9 1308 1305.3 1417.8 1305.4 1553.1C1305.3 1688.5 1414.8 1798.3 1550.1 1798.4Z" fill="white"/>
<path fill-rule="evenodd" clip-rule="evenodd" d="M-0.000419905 1553.2C-0.10042 1688.5 109.5 1798.3 244.8 1798.4C380.1 1798.3 489.7 1688.5 489.6 1553.2V1308H244.8C109.5 1308.1 -0.10042 1417.9 -0.000419905 1553.2ZM652.7 1553.2V2207.2C652.5 2342.5 762.1 2452.3 897.4 2452.5C1032.7 2452.4 1142.3 2342.6 1142.2 2207.3V1553.4C1142.4 1418.1 1032.8 1308.3 897.5 1308.1C762.1 1308.1 652.6 1417.9 652.7 1553.2Z" fill="white"/>
</g>
<defs>
<clipPath id="clip0_549_6">
<rect width="2447.6" height="2452.5" fill="white"/>
</clipPath>
</defs>
</svg>
