<svg width="758" height="108" viewBox="0 0 758 108" fill="none" xmlns="http://www.w3.org/2000/svg">
<g filter="url(#filter0_d_321_194)">
<rect x="4" width="250" height="100" rx="10" fill="#0071E3" fill-opacity="0.5" shape-rendering="crispEdges"/>
<rect x="4.5" y="0.5" width="249" height="99" rx="9.5" stroke="white" shape-rendering="crispEdges"/>
</g>
<path d="M82.6742 46V35.5H87.4442C88.5842 35.5 89.5892 35.72 90.4592 36.16C91.3292 36.59 92.0092 37.195 92.4992 37.975C92.9892 38.755 93.2342 39.68 93.2342 40.75C93.2342 41.81 92.9892 42.735 92.4992 43.525C92.0092 44.305 91.3292 44.915 90.4592 45.355C89.5892 45.785 88.5842 46 87.4442 46H82.6742ZM85.1042 44.005H87.3242C88.0242 44.005 88.6292 43.875 89.1392 43.615C89.6592 43.345 90.0592 42.965 90.3392 42.475C90.6292 41.985 90.7742 41.41 90.7742 40.75C90.7742 40.08 90.6292 39.505 90.3392 39.025C90.0592 38.535 89.6592 38.16 89.1392 37.9C88.6292 37.63 88.0242 37.495 87.3242 37.495H85.1042V44.005ZM98.7418 46.12C97.8818 46.12 97.1168 45.94 96.4468 45.58C95.7868 45.22 95.2618 44.73 94.8718 44.11C94.4918 43.48 94.3018 42.765 94.3018 41.965C94.3018 41.155 94.4918 40.44 94.8718 39.82C95.2618 39.19 95.7868 38.7 96.4468 38.35C97.1168 37.99 97.8818 37.81 98.7418 37.81C99.5918 37.81 100.352 37.99 101.022 38.35C101.692 38.7 102.217 39.185 102.597 39.805C102.977 40.425 103.167 41.145 103.167 41.965C103.167 42.765 102.977 43.48 102.597 44.11C102.217 44.73 101.692 45.22 101.022 45.58C100.352 45.94 99.5918 46.12 98.7418 46.12ZM98.7418 44.2C99.1318 44.2 99.4818 44.11 99.7918 43.93C100.102 43.75 100.347 43.495 100.527 43.165C100.707 42.825 100.797 42.425 100.797 41.965C100.797 41.495 100.707 41.095 100.527 40.765C100.347 40.435 100.102 40.18 99.7918 40C99.4818 39.82 99.1318 39.73 98.7418 39.73C98.3518 39.73 98.0018 39.82 97.6918 40C97.3818 40.18 97.1318 40.435 96.9418 40.765C96.7618 41.095 96.6718 41.495 96.6718 41.965C96.6718 42.425 96.7618 42.825 96.9418 43.165C97.1318 43.495 97.3818 43.75 97.6918 43.93C98.0018 44.11 98.3518 44.2 98.7418 44.2ZM108.736 46.12C107.816 46.12 107.006 45.94 106.306 45.58C105.616 45.22 105.081 44.73 104.701 44.11C104.321 43.48 104.131 42.765 104.131 41.965C104.131 41.155 104.316 40.44 104.686 39.82C105.066 39.19 105.581 38.7 106.231 38.35C106.881 37.99 107.616 37.81 108.436 37.81C109.226 37.81 109.936 37.98 110.566 38.32C111.206 38.65 111.711 39.13 112.081 39.76C112.451 40.38 112.636 41.125 112.636 41.995C112.636 42.085 112.631 42.19 112.621 42.31C112.611 42.42 112.601 42.525 112.591 42.625H106.036V41.26H111.361L110.461 41.665C110.461 41.245 110.376 40.88 110.206 40.57C110.036 40.26 109.801 40.02 109.501 39.85C109.201 39.67 108.851 39.58 108.451 39.58C108.051 39.58 107.696 39.67 107.386 39.85C107.086 40.02 106.851 40.265 106.681 40.585C106.511 40.895 106.426 41.265 106.426 41.695V42.055C106.426 42.495 106.521 42.885 106.711 43.225C106.911 43.555 107.186 43.81 107.536 43.99C107.896 44.16 108.316 44.245 108.796 44.245C109.226 44.245 109.601 44.18 109.921 44.05C110.251 43.92 110.551 43.725 110.821 43.465L112.066 44.815C111.696 45.235 111.231 45.56 110.671 45.79C110.111 46.01 109.466 46.12 108.736 46.12ZM116.909 46.12C116.219 46.12 115.554 46.04 114.914 45.88C114.284 45.71 113.784 45.5 113.414 45.25L114.194 43.57C114.564 43.8 114.999 43.99 115.499 44.14C116.009 44.28 116.509 44.35 116.999 44.35C117.539 44.35 117.919 44.285 118.139 44.155C118.369 44.025 118.484 43.845 118.484 43.615C118.484 43.425 118.394 43.285 118.214 43.195C118.044 43.095 117.814 43.02 117.524 42.97C117.234 42.92 116.914 42.87 116.564 42.82C116.224 42.77 115.879 42.705 115.529 42.625C115.179 42.535 114.859 42.405 114.569 42.235C114.279 42.065 114.044 41.835 113.864 41.545C113.694 41.255 113.609 40.88 113.609 40.42C113.609 39.91 113.754 39.46 114.044 39.07C114.344 38.68 114.774 38.375 115.334 38.155C115.894 37.925 116.564 37.81 117.344 37.81C117.894 37.81 118.454 37.87 119.024 37.99C119.594 38.11 120.069 38.285 120.449 38.515L119.669 40.18C119.279 39.95 118.884 39.795 118.484 39.715C118.094 39.625 117.714 39.58 117.344 39.58C116.824 39.58 116.444 39.65 116.204 39.79C115.964 39.93 115.844 40.11 115.844 40.33C115.844 40.53 115.929 40.68 116.099 40.78C116.279 40.88 116.514 40.96 116.804 41.02C117.094 41.08 117.409 41.135 117.749 41.185C118.099 41.225 118.449 41.29 118.799 41.38C119.149 41.47 119.464 41.6 119.744 41.77C120.034 41.93 120.269 42.155 120.449 42.445C120.629 42.725 120.719 43.095 120.719 43.555C120.719 44.055 120.569 44.5 120.269 44.89C119.969 45.27 119.534 45.57 118.964 45.79C118.404 46.01 117.719 46.12 116.909 46.12ZM131.316 37.81C131.956 37.81 132.526 37.94 133.026 38.2C133.536 38.45 133.936 38.84 134.226 39.37C134.516 39.89 134.661 40.56 134.661 41.38V46H132.321V41.74C132.321 41.09 132.176 40.61 131.886 40.3C131.606 39.99 131.206 39.835 130.686 39.835C130.316 39.835 129.981 39.915 129.681 40.075C129.391 40.225 129.161 40.46 128.991 40.78C128.831 41.1 128.751 41.51 128.751 42.01V46H126.411V37.93H128.646V40.165L128.226 39.49C128.516 38.95 128.931 38.535 129.471 38.245C130.011 37.955 130.626 37.81 131.316 37.81ZM140.68 46.12C139.82 46.12 139.055 45.94 138.385 45.58C137.725 45.22 137.2 44.73 136.81 44.11C136.43 43.48 136.24 42.765 136.24 41.965C136.24 41.155 136.43 40.44 136.81 39.82C137.2 39.19 137.725 38.7 138.385 38.35C139.055 37.99 139.82 37.81 140.68 37.81C141.53 37.81 142.29 37.99 142.96 38.35C143.63 38.7 144.155 39.185 144.535 39.805C144.915 40.425 145.105 41.145 145.105 41.965C145.105 42.765 144.915 43.48 144.535 44.11C144.155 44.73 143.63 45.22 142.96 45.58C142.29 45.94 141.53 46.12 140.68 46.12ZM140.68 44.2C141.07 44.2 141.42 44.11 141.73 43.93C142.04 43.75 142.285 43.495 142.465 43.165C142.645 42.825 142.735 42.425 142.735 41.965C142.735 41.495 142.645 41.095 142.465 40.765C142.285 40.435 142.04 40.18 141.73 40C141.42 39.82 141.07 39.73 140.68 39.73C140.29 39.73 139.94 39.82 139.63 40C139.32 40.18 139.07 40.435 138.88 40.765C138.7 41.095 138.61 41.495 138.61 41.965C138.61 42.425 138.7 42.825 138.88 43.165C139.07 43.495 139.32 43.75 139.63 43.93C139.94 44.11 140.29 44.2 140.68 44.2ZM149.969 46.12C149.019 46.12 148.279 45.88 147.749 45.4C147.219 44.91 146.954 44.185 146.954 43.225V36.145H149.294V43.195C149.294 43.535 149.384 43.8 149.564 43.99C149.744 44.17 149.989 44.26 150.299 44.26C150.669 44.26 150.984 44.16 151.244 43.96L151.874 45.61C151.634 45.78 151.344 45.91 151.004 46C150.674 46.08 150.329 46.12 149.969 46.12ZM145.709 39.91V38.11H151.304V39.91H145.709ZM160.901 46.12C160.141 46.12 159.456 45.95 158.846 45.61C158.236 45.26 157.751 44.775 157.391 44.155C157.041 43.535 156.866 42.805 156.866 41.965C156.866 41.115 157.041 40.38 157.391 39.76C157.751 39.14 158.236 38.66 158.846 38.32C159.456 37.98 160.141 37.81 160.901 37.81C161.581 37.81 162.176 37.96 162.686 38.26C163.196 38.56 163.591 39.015 163.871 39.625C164.151 40.235 164.291 41.015 164.291 41.965C164.291 42.905 164.156 43.685 163.886 44.305C163.616 44.915 163.226 45.37 162.716 45.67C162.216 45.97 161.611 46.12 160.901 46.12ZM161.306 44.2C161.686 44.2 162.031 44.11 162.341 43.93C162.651 43.75 162.896 43.495 163.076 43.165C163.266 42.825 163.361 42.425 163.361 41.965C163.361 41.495 163.266 41.095 163.076 40.765C162.896 40.435 162.651 40.18 162.341 40C162.031 39.82 161.686 39.73 161.306 39.73C160.916 39.73 160.566 39.82 160.256 40C159.946 40.18 159.696 40.435 159.506 40.765C159.326 41.095 159.236 41.495 159.236 41.965C159.236 42.425 159.326 42.825 159.506 43.165C159.696 43.495 159.946 43.75 160.256 43.93C160.566 44.11 160.916 44.2 161.306 44.2ZM163.421 46V44.35L163.466 41.95L163.316 39.565V34.87H165.656V46H163.421ZM171.662 46.12C170.802 46.12 170.037 45.94 169.367 45.58C168.707 45.22 168.182 44.73 167.792 44.11C167.412 43.48 167.222 42.765 167.222 41.965C167.222 41.155 167.412 40.44 167.792 39.82C168.182 39.19 168.707 38.7 169.367 38.35C170.037 37.99 170.802 37.81 171.662 37.81C172.512 37.81 173.272 37.99 173.942 38.35C174.612 38.7 175.137 39.185 175.517 39.805C175.897 40.425 176.087 41.145 176.087 41.965C176.087 42.765 175.897 43.48 175.517 44.11C175.137 44.73 174.612 45.22 173.942 45.58C173.272 45.94 172.512 46.12 171.662 46.12ZM171.662 44.2C172.052 44.2 172.402 44.11 172.712 43.93C173.022 43.75 173.267 43.495 173.447 43.165C173.627 42.825 173.717 42.425 173.717 41.965C173.717 41.495 173.627 41.095 173.447 40.765C173.267 40.435 173.022 40.18 172.712 40C172.402 39.82 172.052 39.73 171.662 39.73C171.272 39.73 170.922 39.82 170.612 40C170.302 40.18 170.052 40.435 169.862 40.765C169.682 41.095 169.592 41.495 169.592 41.965C169.592 42.425 169.682 42.825 169.862 43.165C170.052 43.495 170.302 43.75 170.612 43.93C170.922 44.11 171.272 44.2 171.662 44.2ZM70.1571 64V53.5H74.9271C76.0671 53.5 77.0721 53.72 77.9421 54.16C78.8121 54.59 79.4921 55.195 79.9821 55.975C80.4721 56.755 80.7171 57.68 80.7171 58.75C80.7171 59.81 80.4721 60.735 79.9821 61.525C79.4921 62.305 78.8121 62.915 77.9421 63.355C77.0721 63.785 76.0671 64 74.9271 64H70.1571ZM72.5871 62.005H74.8071C75.5071 62.005 76.1121 61.875 76.6221 61.615C77.1421 61.345 77.5421 60.965 77.8221 60.475C78.1121 59.985 78.2571 59.41 78.2571 58.75C78.2571 58.08 78.1121 57.505 77.8221 57.025C77.5421 56.535 77.1421 56.16 76.6221 55.9C76.1121 55.63 75.5071 55.495 74.8071 55.495H72.5871V62.005ZM87.3347 64V62.425L87.1847 62.08V59.26C87.1847 58.76 87.0297 58.37 86.7197 58.09C86.4197 57.81 85.9547 57.67 85.3247 57.67C84.8947 57.67 84.4697 57.74 84.0497 57.88C83.6397 58.01 83.2897 58.19 82.9997 58.42L82.1597 56.785C82.5997 56.475 83.1297 56.235 83.7497 56.065C84.3697 55.895 84.9997 55.81 85.6397 55.81C86.8697 55.81 87.8247 56.1 88.5047 56.68C89.1847 57.26 89.5247 58.165 89.5247 59.395V64H87.3347ZM84.8747 64.12C84.2447 64.12 83.7047 64.015 83.2547 63.805C82.8047 63.585 82.4597 63.29 82.2197 62.92C81.9797 62.55 81.8597 62.135 81.8597 61.675C81.8597 61.195 81.9747 60.775 82.2047 60.415C82.4447 60.055 82.8197 59.775 83.3297 59.575C83.8397 59.365 84.5047 59.26 85.3247 59.26H87.4697V60.625H85.5797C85.0297 60.625 84.6497 60.715 84.4397 60.895C84.2397 61.075 84.1397 61.3 84.1397 61.57C84.1397 61.87 84.2547 62.11 84.4847 62.29C84.7247 62.46 85.0497 62.545 85.4597 62.545C85.8497 62.545 86.1997 62.455 86.5097 62.275C86.8197 62.085 87.0447 61.81 87.1847 61.45L87.5447 62.53C87.3747 63.05 87.0647 63.445 86.6147 63.715C86.1647 63.985 85.5847 64.12 84.8747 64.12ZM94.9425 64.12C93.9925 64.12 93.2525 63.88 92.7225 63.4C92.1925 62.91 91.9275 62.185 91.9275 61.225V54.145H94.2675V61.195C94.2675 61.535 94.3575 61.8 94.5375 61.99C94.7175 62.17 94.9625 62.26 95.2725 62.26C95.6425 62.26 95.9575 62.16 96.2175 61.96L96.8475 63.61C96.6075 63.78 96.3175 63.91 95.9775 64C95.6475 64.08 95.3025 64.12 94.9425 64.12ZM90.6825 57.91V56.11H96.2775V57.91H90.6825ZM103.111 64V62.425L102.961 62.08V59.26C102.961 58.76 102.806 58.37 102.496 58.09C102.196 57.81 101.731 57.67 101.101 57.67C100.671 57.67 100.246 57.74 99.8261 57.88C99.4161 58.01 99.0661 58.19 98.7761 58.42L97.9361 56.785C98.3761 56.475 98.9061 56.235 99.5261 56.065C100.146 55.895 100.776 55.81 101.416 55.81C102.646 55.81 103.601 56.1 104.281 56.68C104.961 57.26 105.301 58.165 105.301 59.395V64H103.111ZM100.651 64.12C100.021 64.12 99.4811 64.015 99.0311 63.805C98.5811 63.585 98.2361 63.29 97.9961 62.92C97.7561 62.55 97.6361 62.135 97.6361 61.675C97.6361 61.195 97.7511 60.775 97.9811 60.415C98.2211 60.055 98.5961 59.775 99.1061 59.575C99.6161 59.365 100.281 59.26 101.101 59.26H103.246V60.625H101.356C100.806 60.625 100.426 60.715 100.216 60.895C100.016 61.075 99.9161 61.3 99.9161 61.57C99.9161 61.87 100.031 62.11 100.261 62.29C100.501 62.46 100.826 62.545 101.236 62.545C101.626 62.545 101.976 62.455 102.286 62.275C102.596 62.085 102.821 61.81 102.961 61.45L103.321 62.53C103.151 63.05 102.841 63.445 102.391 63.715C101.941 63.985 101.361 64.12 100.651 64.12ZM114.067 57.73H119.122V59.62H114.067V57.73ZM114.247 62.05H119.962V64H111.832V53.5H119.767V55.45H114.247V62.05ZM120.623 64L124.238 59.26L124.193 60.55L120.728 55.93H123.353L125.543 58.945L124.553 58.975L126.818 55.93H129.308L125.828 60.505V59.245L129.428 64H126.773L124.478 60.79L125.453 60.925L123.173 64H120.623ZM134.319 64.12C133.399 64.12 132.589 63.94 131.889 63.58C131.199 63.22 130.664 62.73 130.284 62.11C129.904 61.48 129.714 60.765 129.714 59.965C129.714 59.155 129.899 58.44 130.269 57.82C130.649 57.19 131.164 56.7 131.814 56.35C132.464 55.99 133.199 55.81 134.019 55.81C134.809 55.81 135.519 55.98 136.149 56.32C136.789 56.65 137.294 57.13 137.664 57.76C138.034 58.38 138.219 59.125 138.219 59.995C138.219 60.085 138.214 60.19 138.204 60.31C138.194 60.42 138.184 60.525 138.174 60.625H131.619V59.26H136.944L136.044 59.665C136.044 59.245 135.959 58.88 135.789 58.57C135.619 58.26 135.384 58.02 135.084 57.85C134.784 57.67 134.434 57.58 134.034 57.58C133.634 57.58 133.279 57.67 132.969 57.85C132.669 58.02 132.434 58.265 132.264 58.585C132.094 58.895 132.009 59.265 132.009 59.695V60.055C132.009 60.495 132.104 60.885 132.294 61.225C132.494 61.555 132.769 61.81 133.119 61.99C133.479 62.16 133.899 62.245 134.379 62.245C134.809 62.245 135.184 62.18 135.504 62.05C135.834 61.92 136.134 61.725 136.404 61.465L137.649 62.815C137.279 63.235 136.814 63.56 136.254 63.79C135.694 64.01 135.049 64.12 134.319 64.12ZM143.677 64.12C142.807 64.12 142.032 63.945 141.352 63.595C140.672 63.235 140.137 62.74 139.747 62.11C139.367 61.48 139.177 60.765 139.177 59.965C139.177 59.155 139.367 58.44 139.747 57.82C140.137 57.19 140.672 56.7 141.352 56.35C142.032 55.99 142.807 55.81 143.677 55.81C144.527 55.81 145.267 55.99 145.897 56.35C146.527 56.7 146.992 57.205 147.292 57.865L145.477 58.84C145.267 58.46 145.002 58.18 144.682 58C144.372 57.82 144.032 57.73 143.662 57.73C143.262 57.73 142.902 57.82 142.582 58C142.262 58.18 142.007 58.435 141.817 58.765C141.637 59.095 141.547 59.495 141.547 59.965C141.547 60.435 141.637 60.835 141.817 61.165C142.007 61.495 142.262 61.75 142.582 61.93C142.902 62.11 143.262 62.2 143.662 62.2C144.032 62.2 144.372 62.115 144.682 61.945C145.002 61.765 145.267 61.48 145.477 61.09L147.292 62.08C146.992 62.73 146.527 63.235 145.897 63.595C145.267 63.945 144.527 64.12 143.677 64.12ZM152.045 64.12C151.375 64.12 150.775 63.99 150.245 63.73C149.725 63.47 149.32 63.075 149.03 62.545C148.74 62.005 148.595 61.32 148.595 60.49V55.93H150.935V60.145C150.935 60.815 151.075 61.31 151.355 61.63C151.645 61.94 152.05 62.095 152.57 62.095C152.93 62.095 153.25 62.02 153.53 61.87C153.81 61.71 154.03 61.47 154.19 61.15C154.35 60.82 154.43 60.41 154.43 59.92V55.93H156.77V64H154.55V61.78L154.955 62.425C154.685 62.985 154.285 63.41 153.755 63.7C153.235 63.98 152.665 64.12 152.045 64.12ZM162.237 64.12C161.287 64.12 160.547 63.88 160.017 63.4C159.487 62.91 159.222 62.185 159.222 61.225V54.145H161.562V61.195C161.562 61.535 161.652 61.8 161.832 61.99C162.012 62.17 162.257 62.26 162.567 62.26C162.937 62.26 163.252 62.16 163.512 61.96L164.142 63.61C163.902 63.78 163.612 63.91 163.272 64C162.942 64.08 162.597 64.12 162.237 64.12ZM157.977 57.91V56.11H163.572V57.91H157.977ZM165.456 64V55.93H167.796V64H165.456ZM166.626 54.805C166.196 54.805 165.846 54.68 165.576 54.43C165.306 54.18 165.171 53.87 165.171 53.5C165.171 53.13 165.306 52.82 165.576 52.57C165.846 52.32 166.196 52.195 166.626 52.195C167.056 52.195 167.406 52.315 167.676 52.555C167.946 52.785 168.081 53.085 168.081 53.455C168.081 53.845 167.946 54.17 167.676 54.43C167.416 54.68 167.066 54.805 166.626 54.805ZM173.808 64.12C172.948 64.12 172.183 63.94 171.513 63.58C170.853 63.22 170.328 62.73 169.938 62.11C169.558 61.48 169.368 60.765 169.368 59.965C169.368 59.155 169.558 58.44 169.938 57.82C170.328 57.19 170.853 56.7 171.513 56.35C172.183 55.99 172.948 55.81 173.808 55.81C174.658 55.81 175.418 55.99 176.088 56.35C176.758 56.7 177.283 57.185 177.663 57.805C178.043 58.425 178.233 59.145 178.233 59.965C178.233 60.765 178.043 61.48 177.663 62.11C177.283 62.73 176.758 63.22 176.088 63.58C175.418 63.94 174.658 64.12 173.808 64.12ZM173.808 62.2C174.198 62.2 174.548 62.11 174.858 61.93C175.168 61.75 175.413 61.495 175.593 61.165C175.773 60.825 175.863 60.425 175.863 59.965C175.863 59.495 175.773 59.095 175.593 58.765C175.413 58.435 175.168 58.18 174.858 58C174.548 57.82 174.198 57.73 173.808 57.73C173.418 57.73 173.068 57.82 172.758 58C172.448 58.18 172.198 58.435 172.008 58.765C171.828 59.095 171.738 59.495 171.738 59.965C171.738 60.425 171.828 60.825 172.008 61.165C172.198 61.495 172.448 61.75 172.758 61.93C173.068 62.11 173.418 62.2 173.808 62.2ZM184.702 55.81C185.342 55.81 185.912 55.94 186.412 56.2C186.922 56.45 187.322 56.84 187.612 57.37C187.902 57.89 188.047 58.56 188.047 59.38V64H185.707V59.74C185.707 59.09 185.562 58.61 185.272 58.3C184.992 57.99 184.592 57.835 184.072 57.835C183.702 57.835 183.367 57.915 183.067 58.075C182.777 58.225 182.547 58.46 182.377 58.78C182.217 59.1 182.137 59.51 182.137 60.01V64H179.797V55.93H182.032V58.165L181.612 57.49C181.902 56.95 182.317 56.535 182.857 56.245C183.397 55.955 184.012 55.81 184.702 55.81Z" fill="black"/>
<g filter="url(#filter1_d_321_194)">
<rect x="254" width="250" height="100" rx="10" fill="#0071E3" fill-opacity="0.2" shape-rendering="crispEdges"/>
<rect x="254.5" y="0.5" width="249" height="99" rx="9.5" stroke="white" shape-rendering="crispEdges"/>
</g>
<path d="M332.674 46V35.5H337.444C338.584 35.5 339.589 35.72 340.459 36.16C341.329 36.59 342.009 37.195 342.499 37.975C342.989 38.755 343.234 39.68 343.234 40.75C343.234 41.81 342.989 42.735 342.499 43.525C342.009 44.305 341.329 44.915 340.459 45.355C339.589 45.785 338.584 46 337.444 46H332.674ZM335.104 44.005H337.324C338.024 44.005 338.629 43.875 339.139 43.615C339.659 43.345 340.059 42.965 340.339 42.475C340.629 41.985 340.774 41.41 340.774 40.75C340.774 40.08 340.629 39.505 340.339 39.025C340.059 38.535 339.659 38.16 339.139 37.9C338.629 37.63 338.024 37.495 337.324 37.495H335.104V44.005ZM348.742 46.12C347.882 46.12 347.117 45.94 346.447 45.58C345.787 45.22 345.262 44.73 344.872 44.11C344.492 43.48 344.302 42.765 344.302 41.965C344.302 41.155 344.492 40.44 344.872 39.82C345.262 39.19 345.787 38.7 346.447 38.35C347.117 37.99 347.882 37.81 348.742 37.81C349.592 37.81 350.352 37.99 351.022 38.35C351.692 38.7 352.217 39.185 352.597 39.805C352.977 40.425 353.167 41.145 353.167 41.965C353.167 42.765 352.977 43.48 352.597 44.11C352.217 44.73 351.692 45.22 351.022 45.58C350.352 45.94 349.592 46.12 348.742 46.12ZM348.742 44.2C349.132 44.2 349.482 44.11 349.792 43.93C350.102 43.75 350.347 43.495 350.527 43.165C350.707 42.825 350.797 42.425 350.797 41.965C350.797 41.495 350.707 41.095 350.527 40.765C350.347 40.435 350.102 40.18 349.792 40C349.482 39.82 349.132 39.73 348.742 39.73C348.352 39.73 348.002 39.82 347.692 40C347.382 40.18 347.132 40.435 346.942 40.765C346.762 41.095 346.672 41.495 346.672 41.965C346.672 42.425 346.762 42.825 346.942 43.165C347.132 43.495 347.382 43.75 347.692 43.93C348.002 44.11 348.352 44.2 348.742 44.2ZM358.736 46.12C357.816 46.12 357.006 45.94 356.306 45.58C355.616 45.22 355.081 44.73 354.701 44.11C354.321 43.48 354.131 42.765 354.131 41.965C354.131 41.155 354.316 40.44 354.686 39.82C355.066 39.19 355.581 38.7 356.231 38.35C356.881 37.99 357.616 37.81 358.436 37.81C359.226 37.81 359.936 37.98 360.566 38.32C361.206 38.65 361.711 39.13 362.081 39.76C362.451 40.38 362.636 41.125 362.636 41.995C362.636 42.085 362.631 42.19 362.621 42.31C362.611 42.42 362.601 42.525 362.591 42.625H356.036V41.26H361.361L360.461 41.665C360.461 41.245 360.376 40.88 360.206 40.57C360.036 40.26 359.801 40.02 359.501 39.85C359.201 39.67 358.851 39.58 358.451 39.58C358.051 39.58 357.696 39.67 357.386 39.85C357.086 40.02 356.851 40.265 356.681 40.585C356.511 40.895 356.426 41.265 356.426 41.695V42.055C356.426 42.495 356.521 42.885 356.711 43.225C356.911 43.555 357.186 43.81 357.536 43.99C357.896 44.16 358.316 44.245 358.796 44.245C359.226 44.245 359.601 44.18 359.921 44.05C360.251 43.92 360.551 43.725 360.821 43.465L362.066 44.815C361.696 45.235 361.231 45.56 360.671 45.79C360.111 46.01 359.466 46.12 358.736 46.12ZM366.909 46.12C366.219 46.12 365.554 46.04 364.914 45.88C364.284 45.71 363.784 45.5 363.414 45.25L364.194 43.57C364.564 43.8 364.999 43.99 365.499 44.14C366.009 44.28 366.509 44.35 366.999 44.35C367.539 44.35 367.919 44.285 368.139 44.155C368.369 44.025 368.484 43.845 368.484 43.615C368.484 43.425 368.394 43.285 368.214 43.195C368.044 43.095 367.814 43.02 367.524 42.97C367.234 42.92 366.914 42.87 366.564 42.82C366.224 42.77 365.879 42.705 365.529 42.625C365.179 42.535 364.859 42.405 364.569 42.235C364.279 42.065 364.044 41.835 363.864 41.545C363.694 41.255 363.609 40.88 363.609 40.42C363.609 39.91 363.754 39.46 364.044 39.07C364.344 38.68 364.774 38.375 365.334 38.155C365.894 37.925 366.564 37.81 367.344 37.81C367.894 37.81 368.454 37.87 369.024 37.99C369.594 38.11 370.069 38.285 370.449 38.515L369.669 40.18C369.279 39.95 368.884 39.795 368.484 39.715C368.094 39.625 367.714 39.58 367.344 39.58C366.824 39.58 366.444 39.65 366.204 39.79C365.964 39.93 365.844 40.11 365.844 40.33C365.844 40.53 365.929 40.68 366.099 40.78C366.279 40.88 366.514 40.96 366.804 41.02C367.094 41.08 367.409 41.135 367.749 41.185C368.099 41.225 368.449 41.29 368.799 41.38C369.149 41.47 369.464 41.6 369.744 41.77C370.034 41.93 370.269 42.155 370.449 42.445C370.629 42.725 370.719 43.095 370.719 43.555C370.719 44.055 370.569 44.5 370.269 44.89C369.969 45.27 369.534 45.57 368.964 45.79C368.404 46.01 367.719 46.12 366.909 46.12ZM381.316 37.81C381.956 37.81 382.526 37.94 383.026 38.2C383.536 38.45 383.936 38.84 384.226 39.37C384.516 39.89 384.661 40.56 384.661 41.38V46H382.321V41.74C382.321 41.09 382.176 40.61 381.886 40.3C381.606 39.99 381.206 39.835 380.686 39.835C380.316 39.835 379.981 39.915 379.681 40.075C379.391 40.225 379.161 40.46 378.991 40.78C378.831 41.1 378.751 41.51 378.751 42.01V46H376.411V37.93H378.646V40.165L378.226 39.49C378.516 38.95 378.931 38.535 379.471 38.245C380.011 37.955 380.626 37.81 381.316 37.81ZM390.68 46.12C389.82 46.12 389.055 45.94 388.385 45.58C387.725 45.22 387.2 44.73 386.81 44.11C386.43 43.48 386.24 42.765 386.24 41.965C386.24 41.155 386.43 40.44 386.81 39.82C387.2 39.19 387.725 38.7 388.385 38.35C389.055 37.99 389.82 37.81 390.68 37.81C391.53 37.81 392.29 37.99 392.96 38.35C393.63 38.7 394.155 39.185 394.535 39.805C394.915 40.425 395.105 41.145 395.105 41.965C395.105 42.765 394.915 43.48 394.535 44.11C394.155 44.73 393.63 45.22 392.96 45.58C392.29 45.94 391.53 46.12 390.68 46.12ZM390.68 44.2C391.07 44.2 391.42 44.11 391.73 43.93C392.04 43.75 392.285 43.495 392.465 43.165C392.645 42.825 392.735 42.425 392.735 41.965C392.735 41.495 392.645 41.095 392.465 40.765C392.285 40.435 392.04 40.18 391.73 40C391.42 39.82 391.07 39.73 390.68 39.73C390.29 39.73 389.94 39.82 389.63 40C389.32 40.18 389.07 40.435 388.88 40.765C388.7 41.095 388.61 41.495 388.61 41.965C388.61 42.425 388.7 42.825 388.88 43.165C389.07 43.495 389.32 43.75 389.63 43.93C389.94 44.11 390.29 44.2 390.68 44.2ZM399.969 46.12C399.019 46.12 398.279 45.88 397.749 45.4C397.219 44.91 396.954 44.185 396.954 43.225V36.145H399.294V43.195C399.294 43.535 399.384 43.8 399.564 43.99C399.744 44.17 399.989 44.26 400.299 44.26C400.669 44.26 400.984 44.16 401.244 43.96L401.874 45.61C401.634 45.78 401.344 45.91 401.004 46C400.674 46.08 400.329 46.12 399.969 46.12ZM395.709 39.91V38.11H401.304V39.91H395.709ZM410.901 46.12C410.141 46.12 409.456 45.95 408.846 45.61C408.236 45.26 407.751 44.775 407.391 44.155C407.041 43.535 406.866 42.805 406.866 41.965C406.866 41.115 407.041 40.38 407.391 39.76C407.751 39.14 408.236 38.66 408.846 38.32C409.456 37.98 410.141 37.81 410.901 37.81C411.581 37.81 412.176 37.96 412.686 38.26C413.196 38.56 413.591 39.015 413.871 39.625C414.151 40.235 414.291 41.015 414.291 41.965C414.291 42.905 414.156 43.685 413.886 44.305C413.616 44.915 413.226 45.37 412.716 45.67C412.216 45.97 411.611 46.12 410.901 46.12ZM411.306 44.2C411.686 44.2 412.031 44.11 412.341 43.93C412.651 43.75 412.896 43.495 413.076 43.165C413.266 42.825 413.361 42.425 413.361 41.965C413.361 41.495 413.266 41.095 413.076 40.765C412.896 40.435 412.651 40.18 412.341 40C412.031 39.82 411.686 39.73 411.306 39.73C410.916 39.73 410.566 39.82 410.256 40C409.946 40.18 409.696 40.435 409.506 40.765C409.326 41.095 409.236 41.495 409.236 41.965C409.236 42.425 409.326 42.825 409.506 43.165C409.696 43.495 409.946 43.75 410.256 43.93C410.566 44.11 410.916 44.2 411.306 44.2ZM413.421 46V44.35L413.466 41.95L413.316 39.565V34.87H415.656V46H413.421ZM421.662 46.12C420.802 46.12 420.037 45.94 419.367 45.58C418.707 45.22 418.182 44.73 417.792 44.11C417.412 43.48 417.222 42.765 417.222 41.965C417.222 41.155 417.412 40.44 417.792 39.82C418.182 39.19 418.707 38.7 419.367 38.35C420.037 37.99 420.802 37.81 421.662 37.81C422.512 37.81 423.272 37.99 423.942 38.35C424.612 38.7 425.137 39.185 425.517 39.805C425.897 40.425 426.087 41.145 426.087 41.965C426.087 42.765 425.897 43.48 425.517 44.11C425.137 44.73 424.612 45.22 423.942 45.58C423.272 45.94 422.512 46.12 421.662 46.12ZM421.662 44.2C422.052 44.2 422.402 44.11 422.712 43.93C423.022 43.75 423.267 43.495 423.447 43.165C423.627 42.825 423.717 42.425 423.717 41.965C423.717 41.495 423.627 41.095 423.447 40.765C423.267 40.435 423.022 40.18 422.712 40C422.402 39.82 422.052 39.73 421.662 39.73C421.272 39.73 420.922 39.82 420.612 40C420.302 40.18 420.052 40.435 419.862 40.765C419.682 41.095 419.592 41.495 419.592 41.965C419.592 42.425 419.682 42.825 419.862 43.165C420.052 43.495 420.302 43.75 420.612 43.93C420.922 44.11 421.272 44.2 421.662 44.2ZM317.198 64V53.5H321.968C323.108 53.5 324.113 53.72 324.983 54.16C325.853 54.59 326.533 55.195 327.023 55.975C327.513 56.755 327.758 57.68 327.758 58.75C327.758 59.81 327.513 60.735 327.023 61.525C326.533 62.305 325.853 62.915 324.983 63.355C324.113 63.785 323.108 64 321.968 64H317.198ZM319.628 62.005H321.848C322.548 62.005 323.153 61.875 323.663 61.615C324.183 61.345 324.583 60.965 324.863 60.475C325.153 59.985 325.298 59.41 325.298 58.75C325.298 58.08 325.153 57.505 324.863 57.025C324.583 56.535 324.183 56.16 323.663 55.9C323.153 55.63 322.548 55.495 321.848 55.495H319.628V62.005ZM334.376 64V62.425L334.226 62.08V59.26C334.226 58.76 334.071 58.37 333.761 58.09C333.461 57.81 332.996 57.67 332.366 57.67C331.936 57.67 331.511 57.74 331.091 57.88C330.681 58.01 330.331 58.19 330.041 58.42L329.201 56.785C329.641 56.475 330.171 56.235 330.791 56.065C331.411 55.895 332.041 55.81 332.681 55.81C333.911 55.81 334.866 56.1 335.546 56.68C336.226 57.26 336.566 58.165 336.566 59.395V64H334.376ZM331.916 64.12C331.286 64.12 330.746 64.015 330.296 63.805C329.846 63.585 329.501 63.29 329.261 62.92C329.021 62.55 328.901 62.135 328.901 61.675C328.901 61.195 329.016 60.775 329.246 60.415C329.486 60.055 329.861 59.775 330.371 59.575C330.881 59.365 331.546 59.26 332.366 59.26H334.511V60.625H332.621C332.071 60.625 331.691 60.715 331.481 60.895C331.281 61.075 331.181 61.3 331.181 61.57C331.181 61.87 331.296 62.11 331.526 62.29C331.766 62.46 332.091 62.545 332.501 62.545C332.891 62.545 333.241 62.455 333.551 62.275C333.861 62.085 334.086 61.81 334.226 61.45L334.586 62.53C334.416 63.05 334.106 63.445 333.656 63.715C333.206 63.985 332.626 64.12 331.916 64.12ZM341.984 64.12C341.034 64.12 340.294 63.88 339.764 63.4C339.234 62.91 338.969 62.185 338.969 61.225V54.145H341.309V61.195C341.309 61.535 341.399 61.8 341.579 61.99C341.759 62.17 342.004 62.26 342.314 62.26C342.684 62.26 342.999 62.16 343.259 61.96L343.889 63.61C343.649 63.78 343.359 63.91 343.019 64C342.689 64.08 342.344 64.12 341.984 64.12ZM337.724 57.91V56.11H343.319V57.91H337.724ZM350.152 64V62.425L350.002 62.08V59.26C350.002 58.76 349.847 58.37 349.537 58.09C349.237 57.81 348.772 57.67 348.142 57.67C347.712 57.67 347.287 57.74 346.867 57.88C346.457 58.01 346.107 58.19 345.817 58.42L344.977 56.785C345.417 56.475 345.947 56.235 346.567 56.065C347.187 55.895 347.817 55.81 348.457 55.81C349.687 55.81 350.642 56.1 351.322 56.68C352.002 57.26 352.342 58.165 352.342 59.395V64H350.152ZM347.692 64.12C347.062 64.12 346.522 64.015 346.072 63.805C345.622 63.585 345.277 63.29 345.037 62.92C344.797 62.55 344.677 62.135 344.677 61.675C344.677 61.195 344.792 60.775 345.022 60.415C345.262 60.055 345.637 59.775 346.147 59.575C346.657 59.365 347.322 59.26 348.142 59.26H350.287V60.625H348.397C347.847 60.625 347.467 60.715 347.257 60.895C347.057 61.075 346.957 61.3 346.957 61.57C346.957 61.87 347.072 62.11 347.302 62.29C347.542 62.46 347.867 62.545 348.277 62.545C348.667 62.545 349.017 62.455 349.327 62.275C349.637 62.085 349.862 61.81 350.002 61.45L350.362 62.53C350.192 63.05 349.882 63.445 349.432 63.715C348.982 63.985 348.402 64.12 347.692 64.12ZM362.023 64L357.493 53.5H360.118L364.078 62.8H362.533L366.553 53.5H368.968L364.423 64H362.023ZM373.084 64.12C372.164 64.12 371.354 63.94 370.654 63.58C369.964 63.22 369.429 62.73 369.049 62.11C368.669 61.48 368.479 60.765 368.479 59.965C368.479 59.155 368.664 58.44 369.034 57.82C369.414 57.19 369.929 56.7 370.579 56.35C371.229 55.99 371.964 55.81 372.784 55.81C373.574 55.81 374.284 55.98 374.914 56.32C375.554 56.65 376.059 57.13 376.429 57.76C376.799 58.38 376.984 59.125 376.984 59.995C376.984 60.085 376.979 60.19 376.969 60.31C376.959 60.42 376.949 60.525 376.939 60.625H370.384V59.26H375.709L374.809 59.665C374.809 59.245 374.724 58.88 374.554 58.57C374.384 58.26 374.149 58.02 373.849 57.85C373.549 57.67 373.199 57.58 372.799 57.58C372.399 57.58 372.044 57.67 371.734 57.85C371.434 58.02 371.199 58.265 371.029 58.585C370.859 58.895 370.774 59.265 370.774 59.695V60.055C370.774 60.495 370.869 60.885 371.059 61.225C371.259 61.555 371.534 61.81 371.884 61.99C372.244 62.16 372.664 62.245 373.144 62.245C373.574 62.245 373.949 62.18 374.269 62.05C374.599 61.92 374.899 61.725 375.169 61.465L376.414 62.815C376.044 63.235 375.579 63.56 375.019 63.79C374.459 64.01 373.814 64.12 373.084 64.12ZM378.542 64V55.93H380.777V58.21L380.462 57.55C380.702 56.98 381.087 56.55 381.617 56.26C382.147 55.96 382.792 55.81 383.552 55.81V57.97C383.452 57.96 383.362 57.955 383.282 57.955C383.202 57.945 383.117 57.94 383.027 57.94C382.387 57.94 381.867 58.125 381.467 58.495C381.077 58.855 380.882 59.42 380.882 60.19V64H378.542ZM387.717 64.12C387.027 64.12 386.362 64.04 385.722 63.88C385.092 63.71 384.592 63.5 384.222 63.25L385.002 61.57C385.372 61.8 385.807 61.99 386.307 62.14C386.817 62.28 387.317 62.35 387.807 62.35C388.347 62.35 388.727 62.285 388.947 62.155C389.177 62.025 389.292 61.845 389.292 61.615C389.292 61.425 389.202 61.285 389.022 61.195C388.852 61.095 388.622 61.02 388.332 60.97C388.042 60.92 387.722 60.87 387.372 60.82C387.032 60.77 386.687 60.705 386.337 60.625C385.987 60.535 385.667 60.405 385.377 60.235C385.087 60.065 384.852 59.835 384.672 59.545C384.502 59.255 384.417 58.88 384.417 58.42C384.417 57.91 384.562 57.46 384.852 57.07C385.152 56.68 385.582 56.375 386.142 56.155C386.702 55.925 387.372 55.81 388.152 55.81C388.702 55.81 389.262 55.87 389.832 55.99C390.402 56.11 390.877 56.285 391.257 56.515L390.477 58.18C390.087 57.95 389.692 57.795 389.292 57.715C388.902 57.625 388.522 57.58 388.152 57.58C387.632 57.58 387.252 57.65 387.012 57.79C386.772 57.93 386.652 58.11 386.652 58.33C386.652 58.53 386.737 58.68 386.907 58.78C387.087 58.88 387.322 58.96 387.612 59.02C387.902 59.08 388.217 59.135 388.557 59.185C388.907 59.225 389.257 59.29 389.607 59.38C389.957 59.47 390.272 59.6 390.552 59.77C390.842 59.93 391.077 60.155 391.257 60.445C391.437 60.725 391.527 61.095 391.527 61.555C391.527 62.055 391.377 62.5 391.077 62.89C390.777 63.27 390.342 63.57 389.772 63.79C389.212 64.01 388.527 64.12 387.717 64.12ZM392.971 64V55.93H395.311V64H392.971ZM394.141 54.805C393.711 54.805 393.361 54.68 393.091 54.43C392.821 54.18 392.686 53.87 392.686 53.5C392.686 53.13 392.821 52.82 393.091 52.57C393.361 52.32 393.711 52.195 394.141 52.195C394.571 52.195 394.921 52.315 395.191 52.555C395.461 52.785 395.596 53.085 395.596 53.455C395.596 53.845 395.461 54.17 395.191 54.43C394.931 54.68 394.581 54.805 394.141 54.805ZM401.322 64.12C400.462 64.12 399.697 63.94 399.027 63.58C398.367 63.22 397.842 62.73 397.452 62.11C397.072 61.48 396.882 60.765 396.882 59.965C396.882 59.155 397.072 58.44 397.452 57.82C397.842 57.19 398.367 56.7 399.027 56.35C399.697 55.99 400.462 55.81 401.322 55.81C402.172 55.81 402.932 55.99 403.602 56.35C404.272 56.7 404.797 57.185 405.177 57.805C405.557 58.425 405.747 59.145 405.747 59.965C405.747 60.765 405.557 61.48 405.177 62.11C404.797 62.73 404.272 63.22 403.602 63.58C402.932 63.94 402.172 64.12 401.322 64.12ZM401.322 62.2C401.712 62.2 402.062 62.11 402.372 61.93C402.682 61.75 402.927 61.495 403.107 61.165C403.287 60.825 403.377 60.425 403.377 59.965C403.377 59.495 403.287 59.095 403.107 58.765C402.927 58.435 402.682 58.18 402.372 58C402.062 57.82 401.712 57.73 401.322 57.73C400.932 57.73 400.582 57.82 400.272 58C399.962 58.18 399.712 58.435 399.522 58.765C399.342 59.095 399.252 59.495 399.252 59.965C399.252 60.425 399.342 60.825 399.522 61.165C399.712 61.495 399.962 61.75 400.272 61.93C400.582 62.11 400.932 62.2 401.322 62.2ZM412.216 55.81C412.856 55.81 413.426 55.94 413.926 56.2C414.436 56.45 414.836 56.84 415.126 57.37C415.416 57.89 415.561 58.56 415.561 59.38V64H413.221V59.74C413.221 59.09 413.076 58.61 412.786 58.3C412.506 57.99 412.106 57.835 411.586 57.835C411.216 57.835 410.881 57.915 410.581 58.075C410.291 58.225 410.061 58.46 409.891 58.78C409.731 59.1 409.651 59.51 409.651 60.01V64H407.311V55.93H409.546V58.165L409.126 57.49C409.416 56.95 409.831 56.535 410.371 56.245C410.911 55.955 411.526 55.81 412.216 55.81ZM417.683 64V55.93H420.023V64H417.683ZM418.853 54.805C418.423 54.805 418.073 54.68 417.803 54.43C417.533 54.18 417.398 53.87 417.398 53.5C417.398 53.13 417.533 52.82 417.803 52.57C418.073 52.32 418.423 52.195 418.853 52.195C419.283 52.195 419.633 52.315 419.903 52.555C420.173 52.785 420.308 53.085 420.308 53.455C420.308 53.845 420.173 54.17 419.903 54.43C419.643 54.68 419.293 54.805 418.853 54.805ZM427.099 55.81C427.739 55.81 428.309 55.94 428.809 56.2C429.319 56.45 429.719 56.84 430.009 57.37C430.299 57.89 430.444 58.56 430.444 59.38V64H428.104V59.74C428.104 59.09 427.959 58.61 427.669 58.3C427.389 57.99 426.989 57.835 426.469 57.835C426.099 57.835 425.764 57.915 425.464 58.075C425.174 58.225 424.944 58.46 424.774 58.78C424.614 59.1 424.534 59.51 424.534 60.01V64H422.194V55.93H424.429V58.165L424.009 57.49C424.299 56.95 424.714 56.535 425.254 56.245C425.794 55.955 426.409 55.81 427.099 55.81ZM436.419 67.03C435.659 67.03 434.924 66.935 434.214 66.745C433.514 66.565 432.929 66.29 432.459 65.92L433.389 64.24C433.729 64.52 434.159 64.74 434.679 64.9C435.209 65.07 435.729 65.155 436.239 65.155C437.069 65.155 437.669 64.97 438.039 64.6C438.419 64.23 438.609 63.68 438.609 62.95V61.735L438.759 59.71L438.729 57.67V55.93H440.949V62.65C440.949 64.15 440.559 65.255 439.779 65.965C438.999 66.675 437.879 67.03 436.419 67.03ZM436.059 63.61C435.309 63.61 434.629 63.45 434.019 63.13C433.419 62.8 432.934 62.345 432.564 61.765C432.204 61.175 432.024 60.49 432.024 59.71C432.024 58.92 432.204 58.235 432.564 57.655C432.934 57.065 433.419 56.61 434.019 56.29C434.629 55.97 435.309 55.81 436.059 55.81C436.739 55.81 437.339 55.95 437.859 56.23C438.379 56.5 438.784 56.925 439.074 57.505C439.364 58.075 439.509 58.81 439.509 59.71C439.509 60.6 439.364 61.335 439.074 61.915C438.784 62.485 438.379 62.91 437.859 63.19C437.339 63.47 436.739 63.61 436.059 63.61ZM436.524 61.69C436.934 61.69 437.299 61.61 437.619 61.45C437.939 61.28 438.189 61.045 438.369 60.745C438.549 60.445 438.639 60.1 438.639 59.71C438.639 59.31 438.549 58.965 438.369 58.675C438.189 58.375 437.939 58.145 437.619 57.985C437.299 57.815 436.934 57.73 436.524 57.73C436.114 57.73 435.749 57.815 435.429 57.985C435.109 58.145 434.854 58.375 434.664 58.675C434.484 58.965 434.394 59.31 434.394 59.71C434.394 60.1 434.484 60.445 434.664 60.745C434.854 61.045 435.109 61.28 435.429 61.45C435.749 61.61 436.114 61.69 436.524 61.69Z" fill="black"/>
<g filter="url(#filter2_d_321_194)">
<rect x="504" width="250" height="100" rx="10" fill="#0071E3" fill-opacity="0.5" shape-rendering="crispEdges"/>
<rect x="504.5" y="0.5" width="249" height="99" rx="9.5" stroke="white" shape-rendering="crispEdges"/>
</g>
<path d="M592.782 46V35.5H597.552C598.692 35.5 599.697 35.72 600.567 36.16C601.437 36.59 602.117 37.195 602.607 37.975C603.097 38.755 603.342 39.68 603.342 40.75C603.342 41.81 603.097 42.735 602.607 43.525C602.117 44.305 601.437 44.915 600.567 45.355C599.697 45.785 598.692 46 597.552 46H592.782ZM595.212 44.005H597.432C598.132 44.005 598.737 43.875 599.247 43.615C599.767 43.345 600.167 42.965 600.447 42.475C600.737 41.985 600.882 41.41 600.882 40.75C600.882 40.08 600.737 39.505 600.447 39.025C600.167 38.535 599.767 38.16 599.247 37.9C598.737 37.63 598.132 37.495 597.432 37.495H595.212V44.005ZM608.849 46.12C607.989 46.12 607.224 45.94 606.554 45.58C605.894 45.22 605.369 44.73 604.979 44.11C604.599 43.48 604.409 42.765 604.409 41.965C604.409 41.155 604.599 40.44 604.979 39.82C605.369 39.19 605.894 38.7 606.554 38.35C607.224 37.99 607.989 37.81 608.849 37.81C609.699 37.81 610.459 37.99 611.129 38.35C611.799 38.7 612.324 39.185 612.704 39.805C613.084 40.425 613.274 41.145 613.274 41.965C613.274 42.765 613.084 43.48 612.704 44.11C612.324 44.73 611.799 45.22 611.129 45.58C610.459 45.94 609.699 46.12 608.849 46.12ZM608.849 44.2C609.239 44.2 609.589 44.11 609.899 43.93C610.209 43.75 610.454 43.495 610.634 43.165C610.814 42.825 610.904 42.425 610.904 41.965C610.904 41.495 610.814 41.095 610.634 40.765C610.454 40.435 610.209 40.18 609.899 40C609.589 39.82 609.239 39.73 608.849 39.73C608.459 39.73 608.109 39.82 607.799 40C607.489 40.18 607.239 40.435 607.049 40.765C606.869 41.095 606.779 41.495 606.779 41.965C606.779 42.425 606.869 42.825 607.049 43.165C607.239 43.495 607.489 43.75 607.799 43.93C608.109 44.11 608.459 44.2 608.849 44.2ZM618.843 46.12C617.923 46.12 617.113 45.94 616.413 45.58C615.723 45.22 615.188 44.73 614.808 44.11C614.428 43.48 614.238 42.765 614.238 41.965C614.238 41.155 614.423 40.44 614.793 39.82C615.173 39.19 615.688 38.7 616.338 38.35C616.988 37.99 617.723 37.81 618.543 37.81C619.333 37.81 620.043 37.98 620.673 38.32C621.313 38.65 621.818 39.13 622.188 39.76C622.558 40.38 622.743 41.125 622.743 41.995C622.743 42.085 622.738 42.19 622.728 42.31C622.718 42.42 622.708 42.525 622.698 42.625H616.143V41.26H621.468L620.568 41.665C620.568 41.245 620.483 40.88 620.313 40.57C620.143 40.26 619.908 40.02 619.608 39.85C619.308 39.67 618.958 39.58 618.558 39.58C618.158 39.58 617.803 39.67 617.493 39.85C617.193 40.02 616.958 40.265 616.788 40.585C616.618 40.895 616.533 41.265 616.533 41.695V42.055C616.533 42.495 616.628 42.885 616.818 43.225C617.018 43.555 617.293 43.81 617.643 43.99C618.003 44.16 618.423 44.245 618.903 44.245C619.333 44.245 619.708 44.18 620.028 44.05C620.358 43.92 620.658 43.725 620.928 43.465L622.173 44.815C621.803 45.235 621.338 45.56 620.778 45.79C620.218 46.01 619.573 46.12 618.843 46.12ZM627.016 46.12C626.326 46.12 625.661 46.04 625.021 45.88C624.391 45.71 623.891 45.5 623.521 45.25L624.301 43.57C624.671 43.8 625.106 43.99 625.606 44.14C626.116 44.28 626.616 44.35 627.106 44.35C627.646 44.35 628.026 44.285 628.246 44.155C628.476 44.025 628.591 43.845 628.591 43.615C628.591 43.425 628.501 43.285 628.321 43.195C628.151 43.095 627.921 43.02 627.631 42.97C627.341 42.92 627.021 42.87 626.671 42.82C626.331 42.77 625.986 42.705 625.636 42.625C625.286 42.535 624.966 42.405 624.676 42.235C624.386 42.065 624.151 41.835 623.971 41.545C623.801 41.255 623.716 40.88 623.716 40.42C623.716 39.91 623.861 39.46 624.151 39.07C624.451 38.68 624.881 38.375 625.441 38.155C626.001 37.925 626.671 37.81 627.451 37.81C628.001 37.81 628.561 37.87 629.131 37.99C629.701 38.11 630.176 38.285 630.556 38.515L629.776 40.18C629.386 39.95 628.991 39.795 628.591 39.715C628.201 39.625 627.821 39.58 627.451 39.58C626.931 39.58 626.551 39.65 626.311 39.79C626.071 39.93 625.951 40.11 625.951 40.33C625.951 40.53 626.036 40.68 626.206 40.78C626.386 40.88 626.621 40.96 626.911 41.02C627.201 41.08 627.516 41.135 627.856 41.185C628.206 41.225 628.556 41.29 628.906 41.38C629.256 41.47 629.571 41.6 629.851 41.77C630.141 41.93 630.376 42.155 630.556 42.445C630.736 42.725 630.826 43.095 630.826 43.555C630.826 44.055 630.676 44.5 630.376 44.89C630.076 45.27 629.641 45.57 629.071 45.79C628.511 46.01 627.826 46.12 627.016 46.12ZM641.423 37.81C642.063 37.81 642.633 37.94 643.133 38.2C643.643 38.45 644.043 38.84 644.333 39.37C644.623 39.89 644.768 40.56 644.768 41.38V46H642.428V41.74C642.428 41.09 642.283 40.61 641.993 40.3C641.713 39.99 641.313 39.835 640.793 39.835C640.423 39.835 640.088 39.915 639.788 40.075C639.498 40.225 639.268 40.46 639.098 40.78C638.938 41.1 638.858 41.51 638.858 42.01V46H636.518V37.93H638.753V40.165L638.333 39.49C638.623 38.95 639.038 38.535 639.578 38.245C640.118 37.955 640.733 37.81 641.423 37.81ZM650.788 46.12C649.928 46.12 649.163 45.94 648.493 45.58C647.833 45.22 647.308 44.73 646.918 44.11C646.538 43.48 646.348 42.765 646.348 41.965C646.348 41.155 646.538 40.44 646.918 39.82C647.308 39.19 647.833 38.7 648.493 38.35C649.163 37.99 649.928 37.81 650.788 37.81C651.638 37.81 652.398 37.99 653.068 38.35C653.738 38.7 654.263 39.185 654.643 39.805C655.023 40.425 655.213 41.145 655.213 41.965C655.213 42.765 655.023 43.48 654.643 44.11C654.263 44.73 653.738 45.22 653.068 45.58C652.398 45.94 651.638 46.12 650.788 46.12ZM650.788 44.2C651.178 44.2 651.528 44.11 651.838 43.93C652.148 43.75 652.393 43.495 652.573 43.165C652.753 42.825 652.843 42.425 652.843 41.965C652.843 41.495 652.753 41.095 652.573 40.765C652.393 40.435 652.148 40.18 651.838 40C651.528 39.82 651.178 39.73 650.788 39.73C650.398 39.73 650.048 39.82 649.738 40C649.428 40.18 649.178 40.435 648.988 40.765C648.808 41.095 648.718 41.495 648.718 41.965C648.718 42.425 648.808 42.825 648.988 43.165C649.178 43.495 649.428 43.75 649.738 43.93C650.048 44.11 650.398 44.2 650.788 44.2ZM660.077 46.12C659.127 46.12 658.387 45.88 657.857 45.4C657.327 44.91 657.062 44.185 657.062 43.225V36.145H659.402V43.195C659.402 43.535 659.492 43.8 659.672 43.99C659.852 44.17 660.097 44.26 660.407 44.26C660.777 44.26 661.092 44.16 661.352 43.96L661.982 45.61C661.742 45.78 661.452 45.91 661.112 46C660.782 46.08 660.437 46.12 660.077 46.12ZM655.817 39.91V38.11H661.412V39.91H655.817ZM562.87 64.18C562.03 64.18 561.225 64.07 560.455 63.85C559.685 63.62 559.065 63.325 558.595 62.965L559.42 61.135C559.87 61.455 560.4 61.72 561.01 61.93C561.63 62.13 562.255 62.23 562.885 62.23C563.365 62.23 563.75 62.185 564.04 62.095C564.34 61.995 564.56 61.86 564.7 61.69C564.84 61.52 564.91 61.325 564.91 61.105C564.91 60.825 564.8 60.605 564.58 60.445C564.36 60.275 564.07 60.14 563.71 60.04C563.35 59.93 562.95 59.83 562.51 59.74C562.08 59.64 561.645 59.52 561.205 59.38C560.775 59.24 560.38 59.06 560.02 58.84C559.66 58.62 559.365 58.33 559.135 57.97C558.915 57.61 558.805 57.15 558.805 56.59C558.805 55.99 558.965 55.445 559.285 54.955C559.615 54.455 560.105 54.06 560.755 53.77C561.415 53.47 562.24 53.32 563.23 53.32C563.89 53.32 564.54 53.4 565.18 53.56C565.82 53.71 566.385 53.94 566.875 54.25L566.125 56.095C565.635 55.815 565.145 55.61 564.655 55.48C564.165 55.34 563.685 55.27 563.215 55.27C562.745 55.27 562.36 55.325 562.06 55.435C561.76 55.545 561.545 55.69 561.415 55.87C561.285 56.04 561.22 56.24 561.22 56.47C561.22 56.74 561.33 56.96 561.55 57.13C561.77 57.29 562.06 57.42 562.42 57.52C562.78 57.62 563.175 57.72 563.605 57.82C564.045 57.92 564.48 58.035 564.91 58.165C565.35 58.295 565.75 58.47 566.11 58.69C566.47 58.91 566.76 59.2 566.98 59.56C567.21 59.92 567.325 60.375 567.325 60.925C567.325 61.515 567.16 62.055 566.83 62.545C566.5 63.035 566.005 63.43 565.345 63.73C564.695 64.03 563.87 64.18 562.87 64.18ZM572.12 64.12C571.17 64.12 570.43 63.88 569.9 63.4C569.37 62.91 569.105 62.185 569.105 61.225V54.145H571.445V61.195C571.445 61.535 571.535 61.8 571.715 61.99C571.895 62.17 572.14 62.26 572.45 62.26C572.82 62.26 573.135 62.16 573.395 61.96L574.025 63.61C573.785 63.78 573.495 63.91 573.155 64C572.825 64.08 572.48 64.12 572.12 64.12ZM567.86 57.91V56.11H573.455V57.91H567.86ZM578.93 64.12C578.07 64.12 577.305 63.94 576.635 63.58C575.975 63.22 575.45 62.73 575.06 62.11C574.68 61.48 574.49 60.765 574.49 59.965C574.49 59.155 574.68 58.44 575.06 57.82C575.45 57.19 575.975 56.7 576.635 56.35C577.305 55.99 578.07 55.81 578.93 55.81C579.78 55.81 580.54 55.99 581.21 56.35C581.88 56.7 582.405 57.185 582.785 57.805C583.165 58.425 583.355 59.145 583.355 59.965C583.355 60.765 583.165 61.48 582.785 62.11C582.405 62.73 581.88 63.22 581.21 63.58C580.54 63.94 579.78 64.12 578.93 64.12ZM578.93 62.2C579.32 62.2 579.67 62.11 579.98 61.93C580.29 61.75 580.535 61.495 580.715 61.165C580.895 60.825 580.985 60.425 580.985 59.965C580.985 59.495 580.895 59.095 580.715 58.765C580.535 58.435 580.29 58.18 579.98 58C579.67 57.82 579.32 57.73 578.93 57.73C578.54 57.73 578.19 57.82 577.88 58C577.57 58.18 577.32 58.435 577.13 58.765C576.95 59.095 576.86 59.495 576.86 59.965C576.86 60.425 576.95 60.825 577.13 61.165C577.32 61.495 577.57 61.75 577.88 61.93C578.19 62.11 578.54 62.2 578.93 62.2ZM584.919 64V55.93H587.154V58.21L586.839 57.55C587.079 56.98 587.464 56.55 587.994 56.26C588.524 55.96 589.169 55.81 589.929 55.81V57.97C589.829 57.96 589.739 57.955 589.659 57.955C589.579 57.945 589.494 57.94 589.404 57.94C588.764 57.94 588.244 58.125 587.844 58.495C587.454 58.855 587.259 59.42 587.259 60.19V64H584.919ZM595.267 64.12C594.347 64.12 593.537 63.94 592.837 63.58C592.147 63.22 591.612 62.73 591.232 62.11C590.852 61.48 590.662 60.765 590.662 59.965C590.662 59.155 590.847 58.44 591.217 57.82C591.597 57.19 592.112 56.7 592.762 56.35C593.412 55.99 594.147 55.81 594.967 55.81C595.757 55.81 596.467 55.98 597.097 56.32C597.737 56.65 598.242 57.13 598.612 57.76C598.982 58.38 599.167 59.125 599.167 59.995C599.167 60.085 599.162 60.19 599.152 60.31C599.142 60.42 599.132 60.525 599.122 60.625H592.567V59.26H597.892L596.992 59.665C596.992 59.245 596.907 58.88 596.737 58.57C596.567 58.26 596.332 58.02 596.032 57.85C595.732 57.67 595.382 57.58 594.982 57.58C594.582 57.58 594.227 57.67 593.917 57.85C593.617 58.02 593.382 58.265 593.212 58.585C593.042 58.895 592.957 59.265 592.957 59.695V60.055C592.957 60.495 593.052 60.885 593.242 61.225C593.442 61.555 593.717 61.81 594.067 61.99C594.427 62.16 594.847 62.245 595.327 62.245C595.757 62.245 596.132 62.18 596.452 62.05C596.782 61.92 597.082 61.725 597.352 61.465L598.597 62.815C598.227 63.235 597.762 63.56 597.202 63.79C596.642 64.01 595.997 64.12 595.267 64.12ZM608.588 64.18C607.748 64.18 606.943 64.07 606.173 63.85C605.403 63.62 604.783 63.325 604.313 62.965L605.138 61.135C605.588 61.455 606.118 61.72 606.728 61.93C607.348 62.13 607.973 62.23 608.603 62.23C609.083 62.23 609.468 62.185 609.758 62.095C610.058 61.995 610.278 61.86 610.418 61.69C610.558 61.52 610.628 61.325 610.628 61.105C610.628 60.825 610.518 60.605 610.298 60.445C610.078 60.275 609.788 60.14 609.428 60.04C609.068 59.93 608.668 59.83 608.228 59.74C607.798 59.64 607.363 59.52 606.923 59.38C606.493 59.24 606.098 59.06 605.738 58.84C605.378 58.62 605.083 58.33 604.853 57.97C604.633 57.61 604.523 57.15 604.523 56.59C604.523 55.99 604.683 55.445 605.003 54.955C605.333 54.455 605.823 54.06 606.473 53.77C607.133 53.47 607.958 53.32 608.948 53.32C609.608 53.32 610.258 53.4 610.898 53.56C611.538 53.71 612.103 53.94 612.593 54.25L611.843 56.095C611.353 55.815 610.863 55.61 610.373 55.48C609.883 55.34 609.403 55.27 608.933 55.27C608.463 55.27 608.078 55.325 607.778 55.435C607.478 55.545 607.263 55.69 607.133 55.87C607.003 56.04 606.938 56.24 606.938 56.47C606.938 56.74 607.048 56.96 607.268 57.13C607.488 57.29 607.778 57.42 608.138 57.52C608.498 57.62 608.893 57.72 609.323 57.82C609.763 57.92 610.198 58.035 610.628 58.165C611.068 58.295 611.468 58.47 611.828 58.69C612.188 58.91 612.478 59.2 612.698 59.56C612.928 59.92 613.043 60.375 613.043 60.925C613.043 61.515 612.878 62.055 612.548 62.545C612.218 63.035 611.723 63.43 611.063 63.73C610.413 64.03 609.588 64.18 608.588 64.18ZM618.378 64.12C617.518 64.12 616.753 63.94 616.083 63.58C615.423 63.22 614.898 62.73 614.508 62.11C614.128 61.48 613.938 60.765 613.938 59.965C613.938 59.155 614.128 58.44 614.508 57.82C614.898 57.19 615.423 56.7 616.083 56.35C616.753 55.99 617.518 55.81 618.378 55.81C619.228 55.81 619.988 55.99 620.658 56.35C621.328 56.7 621.853 57.185 622.233 57.805C622.613 58.425 622.803 59.145 622.803 59.965C622.803 60.765 622.613 61.48 622.233 62.11C621.853 62.73 621.328 63.22 620.658 63.58C619.988 63.94 619.228 64.12 618.378 64.12ZM618.378 62.2C618.768 62.2 619.118 62.11 619.428 61.93C619.738 61.75 619.983 61.495 620.163 61.165C620.343 60.825 620.433 60.425 620.433 59.965C620.433 59.495 620.343 59.095 620.163 58.765C619.983 58.435 619.738 58.18 619.428 58C619.118 57.82 618.768 57.73 618.378 57.73C617.988 57.73 617.638 57.82 617.328 58C617.018 58.18 616.768 58.435 616.578 58.765C616.398 59.095 616.308 59.495 616.308 59.965C616.308 60.425 616.398 60.825 616.578 61.165C616.768 61.495 617.018 61.75 617.328 61.93C617.638 62.11 617.988 62.2 618.378 62.2ZM627.772 64.12C627.102 64.12 626.502 63.99 625.972 63.73C625.452 63.47 625.047 63.075 624.757 62.545C624.467 62.005 624.322 61.32 624.322 60.49V55.93H626.662V60.145C626.662 60.815 626.802 61.31 627.082 61.63C627.372 61.94 627.777 62.095 628.297 62.095C628.657 62.095 628.977 62.02 629.257 61.87C629.537 61.71 629.757 61.47 629.917 61.15C630.077 60.82 630.157 60.41 630.157 59.92V55.93H632.497V64H630.277V61.78L630.682 62.425C630.412 62.985 630.012 63.41 629.482 63.7C628.962 63.98 628.392 64.12 627.772 64.12ZM634.665 64V55.93H636.9V58.21L636.585 57.55C636.825 56.98 637.21 56.55 637.74 56.26C638.27 55.96 638.915 55.81 639.675 55.81V57.97C639.575 57.96 639.485 57.955 639.405 57.955C639.325 57.945 639.24 57.94 639.15 57.94C638.51 57.94 637.99 58.125 637.59 58.495C637.2 58.855 637.005 59.42 637.005 60.19V64H634.665ZM644.908 64.12C644.038 64.12 643.263 63.945 642.583 63.595C641.903 63.235 641.368 62.74 640.978 62.11C640.598 61.48 640.408 60.765 640.408 59.965C640.408 59.155 640.598 58.44 640.978 57.82C641.368 57.19 641.903 56.7 642.583 56.35C643.263 55.99 644.038 55.81 644.908 55.81C645.758 55.81 646.498 55.99 647.128 56.35C647.758 56.7 648.223 57.205 648.523 57.865L646.708 58.84C646.498 58.46 646.233 58.18 645.913 58C645.603 57.82 645.263 57.73 644.893 57.73C644.493 57.73 644.133 57.82 643.813 58C643.493 58.18 643.238 58.435 643.048 58.765C642.868 59.095 642.778 59.495 642.778 59.965C642.778 60.435 642.868 60.835 643.048 61.165C643.238 61.495 643.493 61.75 643.813 61.93C644.133 62.11 644.493 62.2 644.893 62.2C645.263 62.2 645.603 62.115 645.913 61.945C646.233 61.765 646.498 61.48 646.708 61.09L648.523 62.08C648.223 62.73 647.758 63.235 647.128 63.595C646.498 63.945 645.758 64.12 644.908 64.12ZM653.773 64.12C652.853 64.12 652.043 63.94 651.343 63.58C650.653 63.22 650.118 62.73 649.738 62.11C649.358 61.48 649.168 60.765 649.168 59.965C649.168 59.155 649.353 58.44 649.723 57.82C650.103 57.19 650.618 56.7 651.268 56.35C651.918 55.99 652.653 55.81 653.473 55.81C654.263 55.81 654.973 55.98 655.603 56.32C656.243 56.65 656.748 57.13 657.118 57.76C657.488 58.38 657.673 59.125 657.673 59.995C657.673 60.085 657.668 60.19 657.658 60.31C657.648 60.42 657.638 60.525 657.628 60.625H651.073V59.26H656.397L655.498 59.665C655.498 59.245 655.413 58.88 655.243 58.57C655.073 58.26 654.838 58.02 654.538 57.85C654.238 57.67 653.888 57.58 653.488 57.58C653.088 57.58 652.733 57.67 652.423 57.85C652.123 58.02 651.888 58.265 651.718 58.585C651.548 58.895 651.463 59.265 651.463 59.695V60.055C651.463 60.495 651.558 60.885 651.748 61.225C651.948 61.555 652.223 61.81 652.573 61.99C652.933 62.16 653.353 62.245 653.833 62.245C654.263 62.245 654.638 62.18 654.958 62.05C655.288 61.92 655.588 61.725 655.858 61.465L657.103 62.815C656.733 63.235 656.268 63.56 655.708 63.79C655.148 64.01 654.503 64.12 653.773 64.12ZM663.643 64V53.5H668.413C669.553 53.5 670.558 53.72 671.428 54.16C672.298 54.59 672.978 55.195 673.468 55.975C673.958 56.755 674.203 57.68 674.203 58.75C674.203 59.81 673.958 60.735 673.468 61.525C672.978 62.305 672.298 62.915 671.428 63.355C670.558 63.785 669.553 64 668.413 64H663.643ZM666.073 62.005H668.293C668.993 62.005 669.598 61.875 670.108 61.615C670.628 61.345 671.028 60.965 671.308 60.475C671.598 59.985 671.743 59.41 671.743 58.75C671.743 58.08 671.598 57.505 671.308 57.025C671.028 56.535 670.628 56.16 670.108 55.9C669.598 55.63 668.993 55.495 668.293 55.495H666.073V62.005ZM680.821 64V62.425L680.671 62.08V59.26C680.671 58.76 680.516 58.37 680.206 58.09C679.906 57.81 679.441 57.67 678.811 57.67C678.381 57.67 677.956 57.74 677.536 57.88C677.126 58.01 676.776 58.19 676.486 58.42L675.646 56.785C676.086 56.475 676.616 56.235 677.236 56.065C677.856 55.895 678.486 55.81 679.126 55.81C680.356 55.81 681.311 56.1 681.991 56.68C682.671 57.26 683.011 58.165 683.011 59.395V64H680.821ZM678.361 64.12C677.731 64.12 677.191 64.015 676.741 63.805C676.291 63.585 675.946 63.29 675.706 62.92C675.466 62.55 675.346 62.135 675.346 61.675C675.346 61.195 675.461 60.775 675.691 60.415C675.931 60.055 676.306 59.775 676.816 59.575C677.326 59.365 677.991 59.26 678.811 59.26H680.956V60.625H679.066C678.516 60.625 678.136 60.715 677.926 60.895C677.726 61.075 677.626 61.3 677.626 61.57C677.626 61.87 677.741 62.11 677.971 62.29C678.211 62.46 678.536 62.545 678.946 62.545C679.336 62.545 679.686 62.455 679.996 62.275C680.306 62.085 680.531 61.81 680.671 61.45L681.031 62.53C680.861 63.05 680.551 63.445 680.101 63.715C679.651 63.985 679.071 64.12 678.361 64.12ZM688.429 64.12C687.479 64.12 686.739 63.88 686.209 63.4C685.679 62.91 685.414 62.185 685.414 61.225V54.145H687.754V61.195C687.754 61.535 687.844 61.8 688.024 61.99C688.204 62.17 688.449 62.26 688.759 62.26C689.129 62.26 689.444 62.16 689.704 61.96L690.334 63.61C690.094 63.78 689.804 63.91 689.464 64C689.134 64.08 688.789 64.12 688.429 64.12ZM684.169 57.91V56.11H689.764V57.91H684.169ZM696.597 64V62.425L696.447 62.08V59.26C696.447 58.76 696.292 58.37 695.982 58.09C695.682 57.81 695.217 57.67 694.587 57.67C694.157 57.67 693.732 57.74 693.312 57.88C692.902 58.01 692.552 58.19 692.262 58.42L691.422 56.785C691.862 56.475 692.392 56.235 693.012 56.065C693.632 55.895 694.262 55.81 694.902 55.81C696.132 55.81 697.087 56.1 697.767 56.68C698.447 57.26 698.787 58.165 698.787 59.395V64H696.597ZM694.137 64.12C693.507 64.12 692.967 64.015 692.517 63.805C692.067 63.585 691.722 63.29 691.482 62.92C691.242 62.55 691.122 62.135 691.122 61.675C691.122 61.195 691.237 60.775 691.467 60.415C691.707 60.055 692.082 59.775 692.592 59.575C693.102 59.365 693.767 59.26 694.587 59.26H696.732V60.625H694.842C694.292 60.625 693.912 60.715 693.702 60.895C693.502 61.075 693.402 61.3 693.402 61.57C693.402 61.87 693.517 62.11 693.747 62.29C693.987 62.46 694.312 62.545 694.722 62.545C695.112 62.545 695.462 62.455 695.772 62.275C696.082 62.085 696.307 61.81 696.447 61.45L696.807 62.53C696.637 63.05 696.327 63.445 695.877 63.715C695.427 63.985 694.847 64.12 694.137 64.12Z" fill="black"/>
<defs>
<filter id="filter0_d_321_194" x="0" y="0" width="258" height="108" filterUnits="userSpaceOnUse" color-interpolation-filters="sRGB">
<feFlood flood-opacity="0" result="BackgroundImageFix"/>
<feColorMatrix in="SourceAlpha" type="matrix" values="0 0 0 0 0 0 0 0 0 0 0 0 0 0 0 0 0 0 127 0" result="hardAlpha"/>
<feOffset dy="4"/>
<feGaussianBlur stdDeviation="2"/>
<feComposite in2="hardAlpha" operator="out"/>
<feColorMatrix type="matrix" values="0 0 0 0 0 0 0 0 0 0 0 0 0 0 0 0 0 0 0.25 0"/>
<feBlend mode="normal" in2="BackgroundImageFix" result="effect1_dropShadow_321_194"/>
<feBlend mode="normal" in="SourceGraphic" in2="effect1_dropShadow_321_194" result="shape"/>
</filter>
<filter id="filter1_d_321_194" x="250" y="0" width="258" height="108" filterUnits="userSpaceOnUse" color-interpolation-filters="sRGB">
<feFlood flood-opacity="0" result="BackgroundImageFix"/>
<feColorMatrix in="SourceAlpha" type="matrix" values="0 0 0 0 0 0 0 0 0 0 0 0 0 0 0 0 0 0 127 0" result="hardAlpha"/>
<feOffset dy="4"/>
<feGaussianBlur stdDeviation="2"/>
<feComposite in2="hardAlpha" operator="out"/>
<feColorMatrix type="matrix" values="0 0 0 0 0 0 0 0 0 0 0 0 0 0 0 0 0 0 0.25 0"/>
<feBlend mode="normal" in2="BackgroundImageFix" result="effect1_dropShadow_321_194"/>
<feBlend mode="normal" in="SourceGraphic" in2="effect1_dropShadow_321_194" result="shape"/>
</filter>
<filter id="filter2_d_321_194" x="500" y="0" width="258" height="108" filterUnits="userSpaceOnUse" color-interpolation-filters="sRGB">
<feFlood flood-opacity="0" result="BackgroundImageFix"/>
<feColorMatrix in="SourceAlpha" type="matrix" values="0 0 0 0 0 0 0 0 0 0 0 0 0 0 0 0 0 0 127 0" result="hardAlpha"/>
<feOffset dy="4"/>
<feGaussianBlur stdDeviation="2"/>
<feComposite in2="hardAlpha" operator="out"/>
<feColorMatrix type="matrix" values="0 0 0 0 0 0 0 0 0 0 0 0 0 0 0 0 0 0 0.25 0"/>
<feBlend mode="normal" in2="BackgroundImageFix" result="effect1_dropShadow_321_194"/>
<feBlend mode="normal" in="SourceGraphic" in2="effect1_dropShadow_321_194" result="shape"/>
</filter>
</defs>
</svg>
