<svg width="413" height="67" viewBox="0 0 413 67" fill="none" xmlns="http://www.w3.org/2000/svg">
<rect width="413" height="67" fill="#0B0949"/>
<path d="M3.648 64V19.2H25.728C30.72 19.2 35.1147 20.1173 38.912 21.952C42.7093 23.744 45.6747 26.304 47.808 29.632C49.9413 32.96 51.008 36.928 51.008 41.536C51.008 46.1867 49.9413 50.1973 47.808 53.568C45.6747 56.896 42.7093 59.4773 38.912 61.312C35.1147 63.104 30.72 64 25.728 64H3.648ZM18.752 52.224H25.088C27.2213 52.224 29.0773 51.8187 30.656 51.008C32.2773 50.1973 33.536 49.0027 34.432 47.424C35.328 45.8027 35.776 43.84 35.776 41.536C35.776 39.2747 35.328 37.3547 34.432 35.776C33.536 34.1973 32.2773 33.0027 30.656 32.192C29.0773 31.3813 27.2213 30.976 25.088 30.976H18.752V52.224ZM77.259 64V57.792L76.235 56.128V44.352C76.235 42.6453 75.7017 41.344 74.635 40.448C73.611 39.552 71.9257 39.104 69.579 39.104C68.0003 39.104 66.4003 39.36 64.779 39.872C63.1577 40.3413 61.771 41.0027 60.619 41.856L56.011 32.32C58.059 31.04 60.5123 30.0587 63.371 29.376C66.2297 28.6933 69.0243 28.352 71.755 28.352C77.771 28.352 82.4217 29.696 85.707 32.384C89.035 35.072 90.699 39.3387 90.699 45.184V64H77.259ZM67.339 64.64C64.4803 64.64 62.091 64.1493 60.171 63.168C58.251 62.1867 56.8003 60.8853 55.819 59.264C54.8377 57.6 54.347 55.7653 54.347 53.76C54.347 51.4987 54.923 49.5787 56.075 48C57.227 46.4213 58.9763 45.2267 61.323 44.416C63.7123 43.6053 66.7203 43.2 70.347 43.2H77.643V50.176H72.651C71.115 50.176 69.9843 50.432 69.259 50.944C68.5763 51.4133 68.235 52.1387 68.235 53.12C68.235 53.9307 68.5337 54.6133 69.131 55.168C69.771 55.68 70.6243 55.936 71.691 55.936C72.6723 55.936 73.5683 55.68 74.379 55.168C75.2323 54.6133 75.851 53.76 76.235 52.608L78.091 56.896C77.5363 59.4987 76.363 61.44 74.571 62.72C72.779 64 70.3683 64.64 67.339 64.64ZM113.846 64.64C109.025 64.64 105.27 63.488 102.582 61.184C99.894 58.8373 98.55 55.2533 98.55 50.432V21.12H113.014V50.304C113.014 51.3707 113.291 52.2027 113.846 52.8C114.443 53.3973 115.169 53.696 116.022 53.696C117.259 53.696 118.347 53.376 119.286 52.736L122.742 62.784C121.633 63.424 120.289 63.8933 118.71 64.192C117.174 64.4907 115.553 64.64 113.846 64.64ZM93.75 41.472V30.912H120.182V41.472H93.75ZM147.572 64V57.792L146.548 56.128V44.352C146.548 42.6453 146.014 41.344 144.948 40.448C143.924 39.552 142.238 39.104 139.892 39.104C138.313 39.104 136.713 39.36 135.092 39.872C133.47 40.3413 132.084 41.0027 130.932 41.856L126.324 32.32C128.372 31.04 130.825 30.0587 133.684 29.376C136.542 28.6933 139.337 28.352 142.068 28.352C148.084 28.352 152.734 29.696 156.02 32.384C159.348 35.072 161.012 39.3387 161.012 45.184V64H147.572ZM137.652 64.64C134.793 64.64 132.404 64.1493 130.484 63.168C128.564 62.1867 127.113 60.8853 126.132 59.264C125.15 57.6 124.66 55.7653 124.66 53.76C124.66 51.4987 125.236 49.5787 126.388 48C127.54 46.4213 129.289 45.2267 131.635 44.416C134.025 43.6053 137.033 43.2 140.66 43.2H147.956V50.176H142.964C141.428 50.176 140.297 50.432 139.572 50.944C138.889 51.4133 138.548 52.1387 138.548 53.12C138.548 53.9307 138.846 54.6133 139.444 55.168C140.084 55.68 140.937 55.936 142.003 55.936C142.985 55.936 143.881 55.68 144.692 55.168C145.545 54.6133 146.164 53.76 146.548 52.608L148.404 56.896C147.849 59.4987 146.676 61.44 144.884 62.72C143.092 64 140.681 64.64 137.652 64.64ZM186.704 64.64C182.693 64.64 179.13 63.872 176.016 62.336C172.901 60.8 170.448 58.6667 168.656 55.936C166.906 53.1627 166.032 50.0053 166.032 46.464C166.032 42.9227 166.906 39.7867 168.656 37.056C170.448 34.3253 172.901 32.192 176.016 30.656C179.13 29.12 182.693 28.352 186.704 28.352C190.97 28.352 194.618 29.2693 197.648 31.104C200.677 32.9387 202.768 35.4773 203.92 38.72L192.72 44.224C191.994 42.6027 191.098 41.4293 190.032 40.704C189.008 39.9787 187.877 39.616 186.64 39.616C185.573 39.616 184.57 39.872 183.632 40.384C182.736 40.896 182.01 41.664 181.456 42.688C180.944 43.6693 180.688 44.928 180.688 46.464C180.688 48 180.944 49.28 181.456 50.304C182.01 51.328 182.736 52.096 183.632 52.608C184.57 53.12 185.573 53.376 186.64 53.376C187.877 53.376 189.008 53.0133 190.032 52.288C191.098 51.5627 191.994 50.3893 192.72 48.768L203.92 54.272C202.768 57.5147 200.677 60.0533 197.648 61.888C194.618 63.7227 190.97 64.64 186.704 64.64ZM231.583 28.352C234.271 28.352 236.703 28.9067 238.879 30.016C241.055 31.0827 242.761 32.768 243.999 35.072C245.279 37.376 245.919 40.3627 245.919 44.032V64H231.455V46.528C231.455 44.352 231.071 42.816 230.303 41.92C229.535 40.9813 228.489 40.512 227.167 40.512C226.185 40.512 225.268 40.7467 224.415 41.216C223.604 41.6427 222.943 42.368 222.431 43.392C221.961 44.416 221.727 45.8027 221.727 47.552V64H207.263V16.512H221.727V39.232L218.271 36.288C219.636 33.6427 221.471 31.6587 223.775 30.336C226.121 29.0133 228.724 28.352 231.583 28.352ZM272.153 64.64C267.886 64.64 264.153 63.8507 260.953 62.272C257.796 60.6933 255.342 58.5387 253.593 55.808C251.844 53.0347 250.969 49.92 250.969 46.464C250.969 42.9227 251.822 39.7867 253.529 37.056C255.278 34.3253 257.646 32.192 260.633 30.656C263.662 29.12 267.054 28.352 270.809 28.352C274.265 28.352 277.444 29.0347 280.345 30.4C283.289 31.7653 285.636 33.792 287.385 36.48C289.177 39.168 290.073 42.496 290.073 46.464C290.073 46.976 290.052 47.552 290.009 48.192C289.966 48.7893 289.924 49.344 289.881 49.856H262.937V42.88H282.201L276.761 44.736C276.761 43.3707 276.505 42.2187 275.993 41.28C275.524 40.2987 274.862 39.552 274.009 39.04C273.156 38.4853 272.132 38.208 270.937 38.208C269.742 38.208 268.697 38.4853 267.801 39.04C266.948 39.552 266.286 40.2987 265.817 41.28C265.348 42.2187 265.113 43.3707 265.113 44.736V46.912C265.113 48.4053 265.412 49.6853 266.009 50.752C266.606 51.8187 267.46 52.6293 268.569 53.184C269.678 53.696 271.022 53.952 272.601 53.952C274.222 53.952 275.545 53.7387 276.569 53.312C277.636 52.8853 278.745 52.2453 279.897 51.392L287.449 59.008C285.742 60.8427 283.63 62.2507 281.113 63.232C278.638 64.1707 275.652 64.64 272.153 64.64ZM313.454 64.64C309.443 64.64 305.88 63.872 302.766 62.336C299.651 60.8 297.198 58.6667 295.406 55.936C293.656 53.1627 292.782 50.0053 292.782 46.464C292.782 42.9227 293.656 39.7867 295.406 37.056C297.198 34.3253 299.651 32.192 302.766 30.656C305.88 29.12 309.443 28.352 313.454 28.352C317.72 28.352 321.368 29.2693 324.398 31.104C327.427 32.9387 329.518 35.4773 330.67 38.72L319.47 44.224C318.744 42.6027 317.848 41.4293 316.782 40.704C315.758 39.9787 314.627 39.616 313.39 39.616C312.323 39.616 311.32 39.872 310.382 40.384C309.486 40.896 308.76 41.664 308.206 42.688C307.694 43.6693 307.438 44.928 307.438 46.464C307.438 48 307.694 49.28 308.206 50.304C308.76 51.328 309.486 52.096 310.382 52.608C311.32 53.12 312.323 53.376 313.39 53.376C314.627 53.376 315.758 53.0133 316.782 52.288C317.848 51.5627 318.744 50.3893 319.47 48.768L330.67 54.272C329.518 57.5147 327.427 60.0533 324.398 61.888C321.368 63.7227 317.72 64.64 313.454 64.64ZM346.109 58.24L346.429 41.216L358.525 28.992H375.613L359.613 45.76L352.381 51.584L346.109 58.24ZM334.013 64V16.512H348.477V64H334.013ZM359.293 64L349.693 51.84L358.589 40.896L376.765 64H359.293ZM392.083 64.64C389.097 64.64 386.153 64.32 383.252 63.68C380.35 63.04 378.004 62.208 376.212 61.184L380.18 51.648C381.844 52.6293 383.764 53.3973 385.94 53.952C388.158 54.5067 390.313 54.784 392.404 54.784C394.153 54.784 395.326 54.6347 395.924 54.336C396.564 54.0373 396.884 53.632 396.884 53.12C396.884 52.608 396.521 52.2453 395.796 52.032C395.07 51.776 394.11 51.584 392.916 51.456C391.721 51.328 390.398 51.1787 388.948 51.008C387.54 50.7947 386.11 50.496 384.66 50.112C383.209 49.728 381.886 49.152 380.692 48.384C379.497 47.616 378.537 46.592 377.812 45.312C377.086 43.9893 376.724 42.3253 376.724 40.32C376.724 38.1013 377.385 36.096 378.708 34.304C380.073 32.512 382.078 31.0827 384.724 30.016C387.412 28.9067 390.718 28.352 394.644 28.352C397.204 28.352 399.764 28.5867 402.324 29.056C404.884 29.5253 407.081 30.2507 408.916 31.232L404.948 40.768C403.156 39.7867 401.385 39.1253 399.636 38.784C397.929 38.4 396.329 38.208 394.836 38.208C393.001 38.208 391.742 38.3787 391.06 38.72C390.42 39.0613 390.1 39.4453 390.1 39.872C390.1 40.384 390.462 40.768 391.188 41.024C391.913 41.28 392.873 41.472 394.068 41.6C395.262 41.728 396.564 41.8987 397.972 42.112C399.422 42.2827 400.852 42.5813 402.26 43.008C403.71 43.392 405.033 43.968 406.228 44.736C407.422 45.504 408.382 46.5493 409.108 47.872C409.833 49.152 410.196 50.7947 410.196 52.8C410.196 54.8907 409.534 56.8533 408.212 58.688C406.889 60.48 404.884 61.9307 402.196 63.04C399.508 64.1067 396.137 64.64 392.083 64.64Z" fill="white"/>
<rect x="2.5" y="0.5" width="164" height="13" fill="#F50119" stroke="#0B0949"/>
<line x1="4.5" y1="19" x2="4.5" y2="65" stroke="#0B0949"/>
<line x1="6.5" y1="19" x2="6.5" y2="64" stroke="#0B0949"/>
<line x1="8.5" y1="19" x2="8.5" y2="64" stroke="#0B0949"/>
</svg>
