<svg width="800" height="150" viewBox="0 0 800 150" fill="none" xmlns="http://www.w3.org/2000/svg">
<rect width="800" height="150" fill="#0B0949"/>
<path d="M197.961 98V53.2H220.041C225.033 53.2 229.427 54.1173 233.225 55.952C237.022 57.744 239.987 60.304 242.121 63.632C244.254 66.96 245.321 70.928 245.321 75.536C245.321 80.1867 244.254 84.1973 242.121 87.568C239.987 90.896 237.022 93.4773 233.225 95.312C229.427 97.104 225.033 98 220.041 98H197.961ZM213.065 86.224H219.401C221.534 86.224 223.39 85.8187 224.969 85.008C226.59 84.1973 227.849 83.0027 228.745 81.424C229.641 79.8027 230.089 77.84 230.089 75.536C230.089 73.2747 229.641 71.3547 228.745 69.776C227.849 68.1973 226.59 67.0027 224.969 66.192C223.39 65.3813 221.534 64.976 219.401 64.976H213.065V86.224ZM271.572 98V91.792L270.548 90.128V78.352C270.548 76.6453 270.014 75.344 268.948 74.448C267.924 73.552 266.238 73.104 263.892 73.104C262.313 73.104 260.713 73.36 259.092 73.872C257.47 74.3413 256.084 75.0027 254.932 75.856L250.324 66.32C252.372 65.04 254.825 64.0587 257.684 63.376C260.542 62.6933 263.337 62.352 266.068 62.352C272.084 62.352 276.734 63.696 280.02 66.384C283.348 69.072 285.012 73.3387 285.012 79.184V98H271.572ZM261.652 98.64C258.793 98.64 256.404 98.1493 254.484 97.168C252.564 96.1867 251.113 94.8853 250.132 93.264C249.15 91.6 248.66 89.7653 248.66 87.76C248.66 85.4987 249.236 83.5787 250.388 82C251.54 80.4213 253.289 79.2267 255.635 78.416C258.025 77.6053 261.033 77.2 264.66 77.2H271.956V84.176H266.964C265.428 84.176 264.297 84.432 263.572 84.944C262.889 85.4133 262.548 86.1387 262.548 87.12C262.548 87.9307 262.846 88.6133 263.444 89.168C264.084 89.68 264.937 89.936 266.003 89.936C266.985 89.936 267.881 89.68 268.692 89.168C269.545 88.6133 270.164 87.76 270.548 86.608L272.404 90.896C271.849 93.4987 270.676 95.44 268.884 96.72C267.092 98 264.681 98.64 261.652 98.64ZM308.159 98.64C303.337 98.64 299.583 97.488 296.895 95.184C294.207 92.8373 292.863 89.2533 292.863 84.432V55.12H307.327V84.304C307.327 85.3707 307.604 86.2027 308.159 86.8C308.756 87.3973 309.481 87.696 310.335 87.696C311.572 87.696 312.66 87.376 313.599 86.736L317.055 96.784C315.945 97.424 314.601 97.8933 313.023 98.192C311.487 98.4907 309.865 98.64 308.159 98.64ZM288.062 75.472V64.912H314.495V75.472H288.062ZM341.884 98V91.792L340.86 90.128V78.352C340.86 76.6453 340.327 75.344 339.26 74.448C338.236 73.552 336.551 73.104 334.204 73.104C332.625 73.104 331.025 73.36 329.404 73.872C327.783 74.3413 326.396 75.0027 325.244 75.856L320.636 66.32C322.684 65.04 325.137 64.0587 327.996 63.376C330.855 62.6933 333.649 62.352 336.38 62.352C342.396 62.352 347.047 63.696 350.332 66.384C353.66 69.072 355.324 73.3387 355.324 79.184V98H341.884ZM331.964 98.64C329.105 98.64 326.716 98.1493 324.796 97.168C322.876 96.1867 321.425 94.8853 320.444 93.264C319.463 91.6 318.972 89.7653 318.972 87.76C318.972 85.4987 319.548 83.5787 320.7 82C321.852 80.4213 323.601 79.2267 325.948 78.416C328.337 77.6053 331.345 77.2 334.972 77.2H342.268V84.176H337.276C335.74 84.176 334.609 84.432 333.884 84.944C333.201 85.4133 332.86 86.1387 332.86 87.12C332.86 87.9307 333.159 88.6133 333.756 89.168C334.396 89.68 335.249 89.936 336.316 89.936C337.297 89.936 338.193 89.68 339.004 89.168C339.857 88.6133 340.476 87.76 340.86 86.608L342.716 90.896C342.161 93.4987 340.988 95.44 339.196 96.72C337.404 98 334.993 98.64 331.964 98.64ZM381.016 98.64C377.005 98.64 373.443 97.872 370.328 96.336C367.213 94.8 364.76 92.6667 362.968 89.936C361.219 87.1627 360.344 84.0053 360.344 80.464C360.344 76.9227 361.219 73.7867 362.968 71.056C364.76 68.3253 367.213 66.192 370.328 64.656C373.443 63.12 377.005 62.352 381.016 62.352C385.283 62.352 388.931 63.2693 391.96 65.104C394.989 66.9387 397.08 69.4773 398.232 72.72L387.032 78.224C386.307 76.6027 385.411 75.4293 384.344 74.704C383.32 73.9787 382.189 73.616 380.952 73.616C379.885 73.616 378.883 73.872 377.944 74.384C377.048 74.896 376.323 75.664 375.768 76.688C375.256 77.6693 375 78.928 375 80.464C375 82 375.256 83.28 375.768 84.304C376.323 85.328 377.048 86.096 377.944 86.608C378.883 87.12 379.885 87.376 380.952 87.376C382.189 87.376 383.32 87.0133 384.344 86.288C385.411 85.5627 386.307 84.3893 387.032 82.768L398.232 88.272C397.08 91.5147 394.989 94.0533 391.96 95.888C388.931 97.7227 385.283 98.64 381.016 98.64ZM425.895 62.352C428.583 62.352 431.015 62.9067 433.191 64.016C435.367 65.0827 437.074 66.768 438.311 69.072C439.591 71.376 440.231 74.3627 440.231 78.032V98H425.767V80.528C425.767 78.352 425.383 76.816 424.615 75.92C423.847 74.9813 422.802 74.512 421.479 74.512C420.498 74.512 419.58 74.7467 418.727 75.216C417.916 75.6427 417.255 76.368 416.743 77.392C416.274 78.416 416.039 79.8027 416.039 81.552V98H401.575V50.512H416.039V73.232L412.583 70.288C413.948 67.6427 415.783 65.6587 418.087 64.336C420.434 63.0133 423.036 62.352 425.895 62.352ZM466.466 98.64C462.199 98.64 458.466 97.8507 455.266 96.272C452.108 94.6933 449.655 92.5387 447.906 89.808C446.156 87.0347 445.282 83.92 445.282 80.464C445.282 76.9227 446.135 73.7867 447.842 71.056C449.591 68.3253 451.959 66.192 454.946 64.656C457.975 63.12 461.367 62.352 465.122 62.352C468.578 62.352 471.756 63.0347 474.658 64.4C477.602 65.7653 479.948 67.792 481.698 70.48C483.49 73.168 484.386 76.496 484.386 80.464C484.386 80.976 484.364 81.552 484.322 82.192C484.279 82.7893 484.236 83.344 484.194 83.856H457.25V76.88H476.514L471.074 78.736C471.074 77.3707 470.818 76.2187 470.306 75.28C469.836 74.2987 469.175 73.552 468.322 73.04C467.468 72.4853 466.444 72.208 465.25 72.208C464.055 72.208 463.01 72.4853 462.114 73.04C461.26 73.552 460.599 74.2987 460.13 75.28C459.66 76.2187 459.426 77.3707 459.426 78.736V80.912C459.426 82.4053 459.724 83.6853 460.322 84.752C460.919 85.8187 461.772 86.6293 462.882 87.184C463.991 87.696 465.335 87.952 466.914 87.952C468.535 87.952 469.858 87.7387 470.882 87.312C471.948 86.8853 473.058 86.2453 474.21 85.392L481.762 93.008C480.055 94.8427 477.943 96.2507 475.426 97.232C472.951 98.1707 469.964 98.64 466.466 98.64ZM507.766 98.64C503.755 98.64 500.193 97.872 497.078 96.336C493.963 94.8 491.51 92.6667 489.718 89.936C487.969 87.1627 487.094 84.0053 487.094 80.464C487.094 76.9227 487.969 73.7867 489.718 71.056C491.51 68.3253 493.963 66.192 497.078 64.656C500.193 63.12 503.755 62.352 507.766 62.352C512.033 62.352 515.681 63.2693 518.71 65.104C521.739 66.9387 523.83 69.4773 524.982 72.72L513.782 78.224C513.057 76.6027 512.161 75.4293 511.094 74.704C510.07 73.9787 508.939 73.616 507.702 73.616C506.635 73.616 505.633 73.872 504.694 74.384C503.798 74.896 503.073 75.664 502.518 76.688C502.006 77.6693 501.75 78.928 501.75 80.464C501.75 82 502.006 83.28 502.518 84.304C503.073 85.328 503.798 86.096 504.694 86.608C505.633 87.12 506.635 87.376 507.702 87.376C508.939 87.376 510.07 87.0133 511.094 86.288C512.161 85.5627 513.057 84.3893 513.782 82.768L524.982 88.272C523.83 91.5147 521.739 94.0533 518.71 95.888C515.681 97.7227 512.033 98.64 507.766 98.64ZM540.421 92.24L540.741 75.216L552.837 62.992H569.925L553.925 79.76L546.693 85.584L540.421 92.24ZM528.325 98V50.512H542.789V98H528.325ZM553.605 98L544.005 85.84L552.901 74.896L571.077 98H553.605ZM586.396 98.64C583.409 98.64 580.465 98.32 577.564 97.68C574.663 97.04 572.316 96.208 570.524 95.184L574.492 85.648C576.156 86.6293 578.076 87.3973 580.252 87.952C582.471 88.5067 584.625 88.784 586.716 88.784C588.465 88.784 589.639 88.6347 590.236 88.336C590.876 88.0373 591.196 87.632 591.196 87.12C591.196 86.608 590.833 86.2453 590.108 86.032C589.383 85.776 588.423 85.584 587.228 85.456C586.033 85.328 584.711 85.1787 583.26 85.008C581.852 84.7947 580.423 84.496 578.972 84.112C577.521 83.728 576.199 83.152 575.004 82.384C573.809 81.616 572.849 80.592 572.124 79.312C571.399 77.9893 571.036 76.3253 571.036 74.32C571.036 72.1013 571.697 70.096 573.02 68.304C574.385 66.512 576.391 65.0827 579.036 64.016C581.724 62.9067 585.031 62.352 588.956 62.352C591.516 62.352 594.076 62.5867 596.636 63.056C599.196 63.5253 601.393 64.2507 603.228 65.232L599.26 74.768C597.468 73.7867 595.697 73.1253 593.948 72.784C592.241 72.4 590.641 72.208 589.148 72.208C587.313 72.208 586.055 72.3787 585.372 72.72C584.732 73.0613 584.412 73.4453 584.412 73.872C584.412 74.384 584.775 74.768 585.5 75.024C586.225 75.28 587.185 75.472 588.38 75.6C589.575 75.728 590.876 75.8987 592.284 76.112C593.735 76.2827 595.164 76.5813 596.572 77.008C598.023 77.392 599.345 77.968 600.54 78.736C601.735 79.504 602.695 80.5493 603.42 81.872C604.145 83.152 604.508 84.7947 604.508 86.8C604.508 88.8907 603.847 90.8533 602.524 92.688C601.201 94.48 599.196 95.9307 596.508 97.04C593.82 98.1067 590.449 98.64 586.396 98.64Z" fill="white"/>
<rect x="196.5" y="26.5" width="164" height="21.5" fill="#F50119" stroke="#0B0949"/>
<line x1="203.5" y1="53" x2="203.5" y2="98" stroke="#0B0949"/>
<line x1="201.5" y1="53" x2="201.5" y2="98" stroke="#0B0949"/>
<line x1="199.5" y1="53" x2="199.5" y2="98" stroke="#0B0949"/>
</svg>
